<svg xmlns="http://www.w3.org/2000/svg" viewBox="0 0 1280 1022"><defs><style>.cls-1{isolation:isolate;}.cls-2{fill:#736962;}.cls-3,.cls-5,.cls-6{fill:#9d9d9d;}.cls-3{opacity:0.4;}.cls-3,.cls-6{mix-blend-mode:multiply;}.cls-4{fill:#bee5b6;}.cls-6{opacity:0.29;}.cls-7{fill:#c1d5d5;}.cls-8{fill:#f8b018;}.cls-9{fill:#d48c1c;}.cls-10{fill:#c0802d;}.cls-11,.cls-13{fill:#fff;}.cls-12{fill:#75a2a2;}.cls-13{fill-rule:evenodd;opacity:0.69;}</style></defs><title>Asset 13</title><g class="cls-1"><g id="Layer_2" data-name="Layer 2"><g id="Layer_1-2" data-name="Layer 1"><rect class="cls-2" width="1280" height="1021"/><path class="cls-3" d="M759.08,529.55c-2.56.18-4.42-1.78-6.86-2.06s-5,1.21-7.44,1.9c-5.08,1.46-13.44,1.82-16.21-4.07-.85-1.8-.33-3.38-1.43-5.15s-4-3.42-4.5-5.52c-.76-3.29,5-1.86,7.44-1.75a46.39,46.39,0,0,1,9,.88c4.32,1.06,9.08,1.85,13,4C754.57,519.12,759.39,523.71,759.08,529.55Z"/><path class="cls-4" d="M755.11,513.54c0-5.65,0-11.3.09-16.95-3.05,7.14-6.37,17.62-5.78,25.77,3.73-1.6,1.58.67,5.46.73,1.71-2.8,4.38-6.47,5.4-9.69-1.08,1.22-2.59,2.49-3.9,3.69,1.63-3.45,1.77-6.38,2.76-9.42-1.13,2.3-3,5.05-4,8.06C755.1,515,755.1,514.27,755.11,513.54Z"/><path class="cls-5" d="M737.27,526.62s-1.53-4.15,1.63-9.25c1.52-1.67,2.36-2.57,6.06-2.12,12.85,2.09,9.08,11.58,1.18,14.26C739.73,529.29,737.27,526.62,737.27,526.62Z"/><path class="cls-6" d="M743,515.14c-2.13.06-2.92.9-4.13,2.23-3.16,5.1-1.63,9.25-1.63,9.25s2.46,2.67,8.87,2.89a13.28,13.28,0,0,0,2-.87C744.55,524.82,741.18,520.06,743,515.14Z"/><path class="cls-5" d="M761.59,524.06a6.26,6.26,0,0,0-4.24-2.43c-1.08.07-1.66.11-2.41,1.79-2.38,6,2.5,7.66,5.61,5.28A6.79,6.79,0,0,0,761.59,524.06Z"/><path class="cls-6" d="M758.12,521.8a5.47,5.47,0,0,0-.77-.17c-1.08.07-1.66.11-2.41,1.79-2.11,5.34,1.47,7.22,4.47,5.94C758.2,527,757.43,524.26,758.12,521.8Z"/><path class="cls-3" d="M588.57,653.11c-4.64,0-11.38.53-15.68-.91a4.93,4.93,0,0,0,0,2.26,25.71,25.71,0,0,1,6.45,2.49c-3.46,1.09-1.36,5.11.75,6.57,3,2.07,5.37.08,8.21-.38,2.21-.35,7,1.4,7.91-1.91.54-1.93-3-6.24-4.27-7.65"/><path class="cls-4" d="M592.39,654.37c1.3-2.21,3.8-5.49,4.55-7.3.69,2.52-1,9.62-1.19,11.55-1.58.69-1.72-.34-4.54,0-2.34.28-4.67,1.31-5.44.15.23-6.14,2.89-11.67,5.82-17.11-.5,4.54.07,9.33.22,13.79A11,11,0,0,1,592.39,654.37Z"/><path class="cls-5" d="M590.19,656.53a4.54,4.54,0,0,0-5.54-1.07c-3.84,1.67-5.76,3-2.55,7.48a.94.94,0,0,0,.4.34l3.56,1.41a3.13,3.13,0,0,0,1.69-.23c1.19-.73,3.49-2.22,4.09-3.78a1,1,0,0,0,0-.61A7.31,7.31,0,0,0,590.19,656.53Z"/><path class="cls-6" d="M585.36,655.2a5.08,5.08,0,0,0-.71.26c-3.84,1.67-5.76,3-2.55,7.48a.94.94,0,0,0,.4.34l3.56,1.41a3.45,3.45,0,0,0,.73,0l-.61-.6A13.49,13.49,0,0,1,585.36,655.2Z"/><path class="cls-5" d="M595.87,658a2.42,2.42,0,0,1,2.76,1.56c1.18,2.29,1.63,3.66-1.15,4.71a.45.45,0,0,1-.28,0l-2-.64a1.88,1.88,0,0,1-.68-.76,7.68,7.68,0,0,1-.64-3.44.69.69,0,0,1,.16-.32A3.59,3.59,0,0,1,595.87,658Z"/><path class="cls-3" d="M243.39,626.81c-7-.19-13.7-8.15-19.6-3.82-2.71,2-4.17,5.17-9.09,3.24-6.3-2.49,0-5.29-.95-9.22-.56-2.29-2.58-1.79-4.31-3.2s-3.4-4.29-4.74-6c6.48-.45,11.76,2.69,18.07,2.72-.08-.47-.17-1.19-.24-1.7,4.93,2.15,29.9,6.56,22.67,16.44C244.8,624.9,244.51,624.46,243.39,626.81Z"/><path class="cls-5" d="M218.24,623.64a3.34,3.34,0,0,0,2.09,3.48c2.66,1.2,4.21,1.58,5-2.39a.73.73,0,0,0,0-.39l-.89-2.76a.92.92,0,0,0-.6-.67c-.93-.23-3.17-.69-4.24-.23a.8.8,0,0,0-.32.29A5.5,5.5,0,0,0,218.24,623.64Z"/><path class="cls-6" d="M222.66,620.68a6.43,6.43,0,0,0-3.12,0,.8.8,0,0,0-.32.29,5.5,5.5,0,0,0-1,2.67,3.34,3.34,0,0,0,2.09,3.48,12,12,0,0,0,1.8.69C221.55,625.27,221.23,622.52,222.66,620.68Z"/><path class="cls-4" d="M232.81,595.43c.95,2.72,2,6.5,1.07,10-5-2.36-8.75-7.67-13.58-10.75,4.37,7.56,10.43,16.33,9.09,25.63h1.54l1.65,1.29c.7-1.66,1.37-.74,1.43-2.7,2.52,1.43,4.32.21,6.83,2.59,1.89-5.67,2.67-14.47,1.54-18.54-.18.3-.95,4.37-2.48,6.73-.47-2.93-2-5.55-3.19-8.38C235.91,600,232.78,595.35,232.81,595.43Z"/><path class="cls-5" d="M249.28,621.68c-1-5.19-8.21-13.23-11.54,1,2.26,5.68,6.84,4,10.92,3.36Z"/><path class="cls-6" d="M242.62,614.75c-1.82.39-3.62,2.59-4.88,8,1.5,3.78,4,4.28,6.75,4A16.89,16.89,0,0,1,242.62,614.75Z"/><path class="cls-3" d="M624.43,758.29c-5.95-.37-21.28-5.85-12-13.38,3.35-2.7,10.07-3.29,14.36-2.4,2.88.6,5.68,2.18,5.77,5.74.11,4.66-5,5.89-8.64,7.17"/><path class="cls-5" d="M639,744.59c-6.83-5.29-27.54-8-19.64,12.63,9.54,4.66,16.1-1.92,22.8-6.69Z"/><path class="cls-3" d="M851.69,528.25c-3.67,0-10.53-.44-12.94-3.39-1.43-1.75-.27-4.18-1.63-6-2.08-2.77-6.82-1.87-8.3-5.69,1.83.17,11.52,4.15,7.87-1.3a17,17,0,0,0,3.78.18c-.15-.45,0-1.21-.2-1.7,4.85.25,14.36.87,18.32,4.26S860.87,529.12,851.69,528.25Z"/><path class="cls-4" d="M858.4,514.38c-.66-2.86-2.53-6.28-5.61-10,2.86,1.21,5.4,3.87,5.83,5.18.63-3.37-.88-10.14-.11-14.54.77,5.29,2.82,8.88,2.76,12.77a15.94,15.94,0,0,1,6.71-8.15,31.23,31.23,0,0,0-6.27,16c-.19,2.24-1.32,2.75-2.43,1.87A17.05,17.05,0,0,1,858.4,514.38Z"/><path class="cls-4" d="M846.44,511.5c-1.16-5.43-1.85-9.23-5-14.49,5,4.54,9.43,14.23,10.67,22.17-2.9-1-.95.87-3.62,1.49-1.75-2.45-3.94-5.49-6.81-7.17,1,1,3.41.64,4.56,1.61-1.82-3.09-2.51-5.89-3.81-8.68a78.25,78.25,0,0,1,4.42,7.18Z"/><path class="cls-5" d="M862.71,519.06c-3.93-6.19-19-13.77-17.82,5.44,6.12,6.37,12.62,2.57,18.81.33Z"/><path class="cls-6" d="M852,512.26c-4.13-.3-7.65,2.59-7.07,12.24A10.18,10.18,0,0,0,853.5,528C850.25,523.86,850.47,517.7,852,512.26Z"/><path class="cls-3" d="M886.55,587.3c-3.88,1.3-9.7,1.63-13.66.29-2.07-.69-4.37-2.48-4-5,.26-1.9,2.8-2.94,3.14-4.7.66-3.38-7.29-3.52-8.75-6.77,4.22-.09,9.83,3.16,14,1.62a8.39,8.39,0,0,0-2.09-3.4c2.38,1.38,5.46,1.86,8.06,2.76s5.15.45,7.46,1.52c4.92,2.28,3.3,5.1,1,8.43C890.67,583.51,887.35,588.69,886.55,587.3Z"/><path class="cls-5" d="M898.12,580.77a2.67,2.67,0,0,0,3.27-.06c1.94-1.39,2.85-2.34.43-4.49a.65.65,0,0,0-.27-.15l-2.28-.49a.73.73,0,0,0-.71.15,7.38,7.38,0,0,0-1.94,2.91.74.74,0,0,0,.06.35A4.35,4.35,0,0,0,898.12,580.77Z"/><path class="cls-5" d="M897,588.16a2,2,0,0,0,2.44,0c1.45-1,2.12-1.75.32-3.35a.56.56,0,0,0-.2-.11l-1.7-.37a.57.57,0,0,0-.53.11,5.48,5.48,0,0,0-1.44,2.18.45.45,0,0,0,0,.25A3.26,3.26,0,0,0,897,588.16Z"/><path class="cls-4" d="M890.72,546.19c2.71,12.41-2.07,17.51-.47,25.16-3.83-3.19-5.7-11.3-11.18-15.76,4.48,12.32,5.94,22.17,9.86,25.42,1.39,1.15,5.65,3.09,6.94-2.69a10.38,10.38,0,0,1,2.12-5.71c2.8-3.36,8.29-12.2,7.73-17.91-1.23,6.38-8.93,7.92-10.08,9.06C898.05,559.42,890.58,547.17,890.72,546.19Z"/><path class="cls-5" d="M895,579.14c-2.9-7.93-16.11-3.12-16.11-3.12s-5.26,10.12-4.08,9.38c3.12,5.35,15.18,1.8,20.68-1.22A11.55,11.55,0,0,0,895,579.14Z"/><path class="cls-6" d="M883.93,574.8a28.18,28.18,0,0,0-5,1.22s-5.26,10.12-4.08,9.38c1.78,3.06,6.48,3.2,11.21,2.21-2.78-3.1-3.41-7.6-3.41-11.48Z"/><path class="cls-4" d="M528.45,614.55a52.61,52.61,0,0,0-3.18,4.85c-2.86-4.4-5.29-9.26-7.67-13.72,2.82,9.21,5.4,17.67,5,27.52a3.64,3.64,0,0,0,3.66-.3c1.54,1,1.65-.58,3,.46a20.73,20.73,0,0,0,5.37-16.56c-1.08,2-3,4.13-4,6.62.44-4.08-.15-8.38-.29-12.36A14.31,14.31,0,0,1,528.45,614.55Z"/><path class="cls-5" d="M507.06,634c5-4.72,24.36-10.49,22.9,4.15-7.87,4.84-16.22,1.95-24.17.25Z"/><path class="cls-3" d="M520.68,641.63c-5.46,0-10.7.06-15.79-1.79-3.43-1.25-9.95-6-2.93-7.41-1-2-2.65-4-3.7-6a20.84,20.84,0,0,0,6.5,2.28c-.67-.81-1-2-1.62-2.8,5.77,1.25,24.22.09,19.21,3.09-1.19.71-1.82,2.08-2.78,6.13C519,637.4,522.83,642.94,520.68,641.63Z"/><path class="cls-5" d="M552.09,662.69c1.31-3.21,4.75-5.14,10.91-3.85,10.1,2.11,15.6,4,13.4,14a1.34,1.34,0,0,1-.52.79l-6.26,3.91a7.85,7.85,0,0,1-3.91.06c-3.34-1.05-9.9-3.28-12.85-6.18a2.91,2.91,0,0,1-.72-1.19A11.3,11.3,0,0,1,552.09,662.69Z"/><path class="cls-3" d="M554,660.91c-4.27,0-6.56-.63-10.08,1.76s-4.71,6.48-1.85,9.67c3.39,3.75,31.67,7.36,26.27,2.6S557,664.21,554,660.91Z"/><path class="cls-5" d="M350.1,603.32c2-6,11.06-.89,11.06-.89s3.65,8.6,2.84,7.89c-2.12,4-10.43-.07-14.22-3A10.27,10.27,0,0,1,350.1,603.32Z"/><path class="cls-3" d="M354.47,604.18c-3.08-1.83-14.62-4-9.58,3.13,2.19,3.09,10.09,3.65,13.33,4-1.84-3.27-3.86-7.87-7.26-9"/><path class="cls-5" d="M440.67,735.8s-.35-2.21-3.57-3.75a4.09,4.09,0,0,0-4,.44c-6.56,3.9-1.73,7.27,3.44,6.64C440.06,737.56,440.67,735.8,440.67,735.8Z"/><path class="cls-5" d="M439.7,731.41a11.37,11.37,0,0,1-.72-9c1-1.77,1.51-2.73,4.93-2.77,12,.37,10.88,9.82,4.43,13.36C442.53,733.63,439.7,731.41,439.7,731.41Z"/><path class="cls-3" d="M441.48,720.52c-4.42,0-8.17,2.9-5.48,9-1.92.37-8.16,1.81-7.24,4.28,3.47,9.38,3.43,1.5,6.34.13C439.54,731.82,446.58,737.09,441.48,720.52Z"/><path class="cls-7" d="M883.49,740.53c-136.42-43.06-183.11-94.09-204.16-111.67C603.77,565.75,509.85,487.32,504,383c0,0-6.31-112.58-36-153-9.84-13.39-21-25.6-21-25.6s-2-2.16-4-4.28c-15.31-16.1-55.46-53.92-144.57-99.87C234.9,67.46,135.06,24.67,0,0V150.66c96.36,41.26,201.26,75.2,264.38,153.7,70.89,88.18,34.09,237.57,117.73,420.08,1.69,3.68,3.09,6.73,5.22,11.14,59.6,123.22,149.48,187.54,189.91,215.73a576,576,0,0,0,78.08,46c19.06,9.19,36.33,15.68,59.6,24.74h564.15l.93-170.34S1014.58,781.91,883.49,740.53Z"/><circle class="cls-8" cx="387.89" cy="390.54" r="62.41" transform="translate(-67.06 80.69) rotate(-10.94)"/><path class="cls-8" d="M468.82,374.91A82.92,82.92,0,1,1,373.91,306,82.91,82.91,0,0,1,468.82,374.91Z"/><path class="cls-9" d="M398.18,458.7a71.66,71.66,0,1,1,59.52-82A71.74,71.74,0,0,1,398.18,458.7ZM376.8,324.22a64.51,64.51,0,1,0,73.84,53.58A64.58,64.58,0,0,0,376.8,324.22Z"/><path class="cls-9" d="M420.54,394.45a20.38,20.38,0,0,0-11.44-15.09,19.47,19.47,0,0,0,3.35-14.28c-1.53-9.37-7.93-14.26-14.87-16.3l-1.69-10.65-12.3,2,1.25,7.84-13.72,2.18-1.24-7.84-12.31,2,1.25,7.83-6.73,1.07,1.84,11.56,6.73-1.07,4,24.94,3.66,23-8.84,1.4,1.84,11.55,8.84-1.4,2,12.65,12.31-2-2-12.38,13.71-2.18,2,12.38,12.3-2-2.1-13.24C416.79,412.52,422,403.68,420.54,394.45Zm-33.64-35c2.11-.26,11.88-1,13.26,7.7l.06.32a8.23,8.23,0,0,1-1.57,5.76c-1.65,2.26-4.66,4-8.81,5.17L376,380.59l-3-18.93Zm13.6,47.3-19.87,3.16-2.79-17.52,9.62-1.53c1.72-.28,3.35-.62,4.9-1l5.31-.84a9,9,0,1,1,2.83,17.75Z"/><circle class="cls-8" cx="501.07" cy="400.01" r="43.99" transform="translate(24.54 828.96) rotate(-80.59)"/><path class="cls-8" d="M558.38,409.51a58.44,58.44,0,1,1-45.85-68.77A58.44,58.44,0,0,1,558.38,409.51Z"/><path class="cls-9" d="M491.17,447.57A50.51,50.51,0,1,1,550.6,408,50.56,50.56,0,0,1,491.17,447.57ZM510,353.46A45.47,45.47,0,1,0,545.66,407,45.53,45.53,0,0,0,510,353.46Z"/><polygon class="cls-9" points="511.23 361.67 477.26 399.29 499.09 419.57 527.23 409.77 511.23 361.67"/><polygon class="cls-9" points="498.39 422.91 477.29 401.84 494.66 440.69 526.18 412.09 498.39 422.91"/><polygon class="cls-10" points="504.08 395.77 477.26 399.29 499.09 419.57 527.23 409.77 504.08 395.77"/><path class="cls-11" d="M602.23,448a78.9,78.9,0,0,1-29.29-42c-4.35-14.79-5.05-36.13,1.24-50.57,8.93-20.48,28.09-35.84,46.74-43.79,40.84-17.41,88.83,1.53,114.12,40.84,22.86,35.54,7.71,79.35-24.77,99.22-19.31,11.82-42.37,15.39-64.4,15.63-1.36,4.74-9.67,12.14-13.49,14.46,3.32-7.13,3.32-17.13,3.32-17.13S606.82,451.32,602.23,448Z"/><path class="cls-12" d="M689.62,339.85c-17.61-16.1-43.6-14-59.59.15l-4.49,4,12.7,12.44,4.49-4c11.56-10.21,27.7-11.48,39.71-1.33,7.37,6.23,10.85,13.45,9,21-1.75,7.27-7.91,12.81-16.46,14.81-9.19,2.14-24.77-3.17-29.34-4.78l-5.28-1.87-2.23,5.14c-.3.7-5.68,18.86-5.52,34.94l.06,6,12-.12-.06-6c-.09-8.71,2.51-18,4.38-23.47,6.9,1.81,18.86,4.15,28.72,1.84,13.07-3,22.56-11.9,25.4-23.68C706,363,701.67,350.88,689.62,339.85Z"/><path class="cls-12" d="M638.74,450.94a9,9,0,0,1-7.27-9.95,8,8,0,0,1,9.83-6.7c4.6,1.34,6.92,5.76,5.86,10.55S643.11,451.91,638.74,450.94Z"/><path d="M694.45,700.13c-1.15-9.14-1.74-17.48-2.84-26.68-1.79-15-3.74-25.72-3.74-25.72s-15.29-6.69-25.49-11a17,17,0,0,0-2.39-2.56l.15-.07c-.17-2,0-5.1-.19-9.63l1.73-.48c-1.44-23.59-6.51-67.86-17.37-74.12a15.5,15.5,0,0,0-2.5-2.79c-3.5-3.06-11.11-3.22-19.87-1.83-.17-2.82-.44-6.5-.44-6.5a26,26,0,0,0,4.46-8.6c7.83-3.16,12.18-9.88,4.2-13-.71-.28-1.41-.52-2.1-.75.09-9.81-.72-16.13-19.32-19-9.85-1.53-13.64,4.59-14.89,12.67-7.51.79-10.64,6.79-3.57,13.69a43.4,43.4,0,0,0,3.93,2.31c.48,2.42,1.07,4.83,1.63,6.93a21.76,21.76,0,0,0-10.36,8.72,7.5,7.5,0,0,0-2.19-.59c-3.91,4.39-19.84,18.34-24.42,29-2.12,4.93-1.8,15,4.23,14.74,8.92-.31,18-5.89,21.34-7.21l.11,0a118.6,118.6,0,0,0,2.63,16.05c2.31,9.62,2,13.46,1.62,15.52-2.39,4.28-2.11,31.66-2.22,32.67a29.59,29.59,0,0,0,3.2,1.69c-.1,15.23,1.44,31.47,1.6,46.11.22,20.15,2.41,32.76,5.62,52.08.17.91.62,3.85.62,3.85s-22.51-5-23-2.4c-1.81,9.42,19.26,20,28.64,22.23,10.46,2.46,11.18-6.35,11.18-6.35s-1.18-10.77-.15-17.34c2.91-18.6,2.31-24.22,1.65-39.7-.62-14.59,6.19-29.29,6-43.9,9.24,21.32,13.25,43.64,21.13,65.36-7.34-1.45-17.31-4.28-21.84-2.52-1.32,7,14.76,15,22,18,5.91,2.47,16.28,2.58,15.36-7.77-1-13.71-3.52-26.7-6.24-39.68,10.23,6,21.18,12.35,26.47,15.5C683.9,705.78,690.06,702.19,694.45,700.13ZM650,624c0,.08,1.69.48,1.69.55a7.13,7.13,0,0,0,1,.41,5,5,0,0,1-1.39,4.75l-.26.25a6.74,6.74,0,0,0-3.91.55l-2.11-.86c1.14-6.34-4-13.7-5.38-20.93-1.71-8.8-.67-18.27,1.3-27.44,1.76,7.67,4.14,15,5.74,21.8A111.82,111.82,0,0,1,650,624Zm-57-74.69a5.78,5.78,0,0,0-1.16-2.27,9.72,9.72,0,0,0,5-3.67,7.51,7.51,0,0,0,.75-4.52l.32-.21c3,5.36,6.92,3.87,8,10.42a129.47,129.47,0,0,0-18.45,7.06,2.87,2.87,0,0,0-.62.45,64.69,64.69,0,0,0-16.13,11C576.39,561.81,586,556.18,593,549.26Z"/><path class="cls-3" d="M607.16,765.84c-22.5,0-44.07-5.43-65.51-9.88-9.81-2-21.33-1.81-31.49-2.65a229.68,229.68,0,0,1-34.68-5.1c-4.3-1-8.27-1.51-11.32-.61-6,1.79-11.56,5-18.13,5.67-12.67,1.3-21.73-5.79-33.79-5.51-.09-5.41,2.62-11.07,2.82-16.45.11-2.85.44-3.56-1.85-5.09-1.57-1.05-4.26-.13-6-.37-3.29-.47-14.79,1.48-18.07.49-16.5-5-20.41-23.74-11.5-32.5,6.12-6,21.94-15.07,30.5-13.5,1.53.28,5.39,5.85,6.5,6.5,2,1.16,6.25,5.3,8,6.5,4.81,3.3,16.73-6.46,21.92-8,5.56-1.65,9.67-2.5,15.59-1.65,12.58,1.81,19,3.65,32.49,2.65,4.45-.33,10.6-.37,15.51,1,2.53.71,4.77,3.77,7.39,4.87,4.38,1.83,9.92,2,14.59,2.12,8.25.24,16.2,1.48,24.49.51,3.66-.43,8-8.53,8-8.53s24.76,5.61,32.5,6c10,.5,39.5,7.5,39.5,7.5l-14.5,14s5.75-.82,10.5,2c6,3.57,17,3.66,20.47,10.54-9.47,15-26.11,2.25-37.47,1-12.3-1.4-22.81-5.09-35.2-5.93s-24.93.43-37.35.43c-1.76,0-9.38-1.14-10.53.53-1.72,2.51,1.74,7,3.48,8.49,8.77,7.75,25.72,6.33,36.55,9.44,11.42,3.29,19.63,9.59,30.11,14.56C605,756.89,611.49,764.94,607.16,765.84Z"/><polygon class="cls-13" points="0 429.14 1280 429.14 1280 583 0 583 0 429.14 0 429.14"/></g></g></g></svg>