<svg xmlns="http://www.w3.org/2000/svg" viewBox="0 0 623.44 741.64"><defs><style>.cls-1{isolation:isolate;}.cls-10,.cls-2{fill:#ccc;}.cls-11,.cls-12,.cls-13,.cls-14,.cls-15,.cls-16,.cls-17,.cls-18,.cls-19,.cls-2,.cls-21,.cls-3,.cls-4,.cls-6,.cls-9{fill-rule:evenodd;}.cls-3,.cls-8{fill:#fff;}.cls-4{fill:#b3b3b3;}.cls-34,.cls-5{fill:none;}.cls-5{stroke:#1e4b73;stroke-miterlimit:22.93;stroke-width:2.88px;stroke-dasharray:2.88 8.64;}.cls-22,.cls-6{fill:#1a1a1a;opacity:0.2;}.cls-7{fill:#d4ebff;}.cls-9{fill:#1e4b73;}.cls-11{fill:#f06358;}.cls-12{fill:#f58982;}.cls-13{fill:#f80;}.cls-14{fill:#ffd4a3;}.cls-15{fill:#ffc685;}.cls-16{fill:#ffd500;}.cls-17{fill:#d4453b;}.cls-18{fill:#346896;}.cls-19{fill:#5896cc;}.cls-20,.cls-21{fill:#f9e6d7;}.cls-23{fill:#f8b018;}.cls-24,.cls-28,.cls-29,.cls-30{fill:#d48c1c;}.cls-25{fill:#c0802d;}.cls-26{fill:#d78e1c;}.cls-27,.cls-30{opacity:0.4;}.cls-27,.cls-29,.cls-30{mix-blend-mode:screen;}.cls-28,.cls-33{mix-blend-mode:multiply;}.cls-31{fill:#a5a5a4;}.cls-32{fill:#444544;}.cls-35{fill:#858584;}</style></defs><title>Asset 4</title><g class="cls-1"><g id="Layer_2" data-name="Layer 2"><g id="Objects"><path class="cls-2" d="M144.62,354.84h330.3c8.87,0,13.43,3.83,10.12,16.19L456.93,475.9H162.62L136,372.65C132.1,357.52,134.53,354.84,144.62,354.84Z"/><path class="cls-2" d="M497.8,580c16.52-4.51,34.7,9.36,40.6,31s-2.71,42.8-19.23,47.31-34.7-9.36-40.6-31S481.28,584.47,497.8,580Z"/><path class="cls-3" d="M498.41,582.22c13.68-3.74,28.74,7.75,33.63,25.66s-2.24,35.44-15.93,39.18-28.73-7.75-33.62-25.66S484.73,586,498.41,582.22Z"/><path class="cls-4" d="M497.8,580l.64-.16L504,600.24l-1.28.35-5.58-20.44Z"/><path class="cls-4" d="M496.92,585.88l4.64-1.27A2,2,0,0,1,504,586l5.76,21.1a2,2,0,0,1-1.37,2.41l-4.64,1.27a2,2,0,0,1-2.42-1.38l-5.76-21.1A2,2,0,0,1,496.92,585.88Z"/><path class="cls-3" d="M498.37,587.08l2.55-.7a1.08,1.08,0,0,1,1.33.76L507.67,607a1.09,1.09,0,0,1-.76,1.33l-2.56.7a1.08,1.08,0,0,1-1.33-.76l-5.41-19.83A1.07,1.07,0,0,1,498.37,587.08Z"/><path class="cls-3" d="M142.69,357.4H477.9a3.91,3.91,0,0,1,3.91,3.9h0a3.92,3.92,0,0,1-3.91,3.91H142.69a3.92,3.92,0,0,1-3.91-3.91h0A3.91,3.91,0,0,1,142.69,357.4Z"/><line class="cls-5" x1="566.76" y1="336.43" x2="566.76" y2="217.51"/><line class="cls-5" x1="312.02" y1="70.33" x2="312.02" y2="371.5"/><line class="cls-5" x1="57.65" y1="336.43" x2="57.65" y2="177.11"/><line class="cls-5" x1="57.65" y1="150.53" x2="312.02" y2="84.81"/><line class="cls-5" x1="566.76" y1="183.41" x2="312.02" y2="84.81"/><line class="cls-5" x1="566.76" y1="336.43" x2="57.28" y2="336.43"/><path class="cls-6" d="M383.57,55.25a27.7,27.7,0,0,0-17.71,6.45,47,47,0,0,0-.74-7.46,47.7,47.7,0,0,0-29.77-36.09,46.21,46.21,0,0,0-4.83-1.58A47.83,47.83,0,0,0,318.18,15c-.66,0-1.32,0-2,.05a47.73,47.73,0,0,0-43.64,61.66,16.85,16.85,0,0,0,.38,33.7H383.57a27.56,27.56,0,1,0,0-55.11Z"/><path class="cls-7" d="M365.91,40.31a27.43,27.43,0,0,0-17.71,6.45,48.23,48.23,0,0,0-.74-7.47A45.63,45.63,0,0,0,346.2,34,47.77,47.77,0,0,0,317.69,3.2a49.55,49.55,0,0,0-4.83-1.58A47.85,47.85,0,0,0,300.51,0c-.66,0-1.32,0-2,.05A47.7,47.7,0,0,0,254.9,61.71a16.85,16.85,0,0,0,.38,33.7H365.91a27.55,27.55,0,0,0,0-55.1Z"/><rect class="cls-8" x="162.62" y="479.25" width="295.09" height="196.01" rx="6.58" ry="6.58"/><path class="cls-4" d="M182,479.25h16.34v9.33a1.54,1.54,0,0,1-1.53,1.54H183.53a1.54,1.54,0,0,1-1.53-1.54Z"/><path class="cls-4" d="M422,479.25h16.35v9.33a1.54,1.54,0,0,1-1.54,1.54H423.52a1.54,1.54,0,0,1-1.54-1.54Z"/><polygon class="cls-9" points="467.84 381.66 447.4 461.78 172.38 461.78 151.74 381.66 467.84 381.66"/><rect class="cls-8" x="182.96" y="470.78" width="14.41" height="16.54" rx="1.35" ry="1.35"/><rect class="cls-8" x="422.95" y="470.78" width="14.41" height="16.54" rx="1.35" ry="1.35"/><rect class="cls-10" x="427.11" y="505.37" width="12.87" height="10.53" rx="1.88" ry="1.88"/><rect class="cls-10" x="427.11" y="518.28" width="12.87" height="13.76" rx="2.3" ry="2.3"/><rect class="cls-10" x="427.11" y="534.42" width="12.87" height="13.76" rx="2.3" ry="2.3"/><rect class="cls-10" x="427.11" y="550.57" width="12.87" height="13.76" rx="2.3" ry="2.3"/><rect class="cls-10" x="427.11" y="566.71" width="12.87" height="13.76" rx="2.3" ry="2.3"/><rect class="cls-10" x="427.11" y="582.85" width="12.87" height="13.76" rx="2.3" ry="2.3"/><rect class="cls-10" x="411.03" y="505.37" width="12.87" height="10.53" rx="1.88" ry="1.88"/><rect class="cls-10" x="396.17" y="518.28" width="27.72" height="13.76" rx="2.46" ry="2.46"/><rect class="cls-10" x="406.64" y="534.42" width="17.26" height="13.76" rx="2.46" ry="2.46"/><rect class="cls-10" x="394.36" y="550.57" width="29.54" height="13.76" rx="2.46" ry="2.46"/><rect class="cls-10" x="411.03" y="566.71" width="12.87" height="13.76" rx="2.3" ry="2.3"/><rect class="cls-10" x="411.03" y="582.85" width="12.87" height="13.76" rx="2.3" ry="2.3"/><rect class="cls-10" x="396.17" y="505.37" width="11.64" height="10.53" rx="1.88" ry="1.88"/><rect class="cls-10" x="381.07" y="505.37" width="11.64" height="10.53" rx="1.88" ry="1.88"/><rect class="cls-10" x="365.97" y="505.37" width="11.64" height="10.53" rx="1.88" ry="1.88"/><rect class="cls-10" x="350.87" y="505.37" width="11.64" height="10.53" rx="1.88" ry="1.88"/><rect class="cls-10" x="335.77" y="505.37" width="11.64" height="10.53" rx="1.88" ry="1.88"/><rect class="cls-10" x="320.67" y="505.37" width="11.64" height="10.53" rx="1.88" ry="1.88"/><rect class="cls-10" x="305.57" y="505.37" width="11.64" height="10.53" rx="1.88" ry="1.88"/><rect class="cls-10" x="290.47" y="505.37" width="11.64" height="10.53" rx="1.88" ry="1.88"/><rect class="cls-10" x="275.37" y="505.37" width="11.64" height="10.53" rx="1.88" ry="1.88"/><rect class="cls-10" x="260.27" y="505.37" width="11.64" height="10.53" rx="1.88" ry="1.88"/><rect class="cls-10" x="245.17" y="505.37" width="11.64" height="10.53" rx="1.88" ry="1.88"/><rect class="cls-10" x="230.07" y="505.37" width="11.64" height="10.53" rx="1.88" ry="1.88"/><rect class="cls-10" x="214.98" y="505.37" width="11.64" height="10.53" rx="1.88" ry="1.88"/><rect class="cls-10" x="199.88" y="505.37" width="11.64" height="10.53" rx="1.88" ry="1.88"/><rect class="cls-10" x="182.91" y="505.37" width="12.87" height="10.53" rx="1.88" ry="1.88"/><rect class="cls-10" x="380.08" y="518.28" width="12.63" height="13.76" rx="2.26" ry="2.26"/><rect class="cls-10" x="363.7" y="518.28" width="12.63" height="13.76" rx="2.26" ry="2.26"/><path class="cls-10" d="M349.57,518.28h8.12a2.26,2.26,0,0,1,2.26,2.26v9.25a2.26,2.26,0,0,1-2.26,2.26h-8.12a2.25,2.25,0,0,1-2.25-2.25v-9.25A2.26,2.26,0,0,1,349.57,518.28Z"/><rect class="cls-10" x="330.93" y="518.28" width="12.63" height="13.76" rx="2.26" ry="2.26"/><rect class="cls-10" x="314.55" y="518.28" width="12.63" height="13.76" rx="2.26" ry="2.26"/><rect class="cls-10" x="298.17" y="518.28" width="12.63" height="13.76" rx="2.26" ry="2.26"/><rect class="cls-10" x="281.79" y="518.28" width="12.63" height="13.76" rx="2.26" ry="2.26"/><rect class="cls-10" x="265.4" y="518.28" width="12.63" height="13.76" rx="2.26" ry="2.26"/><rect class="cls-10" x="249.02" y="518.28" width="12.63" height="13.76" rx="2.26" ry="2.26"/><rect class="cls-10" x="232.64" y="518.28" width="12.63" height="13.76" rx="2.26" ry="2.26"/><rect class="cls-10" x="216.26" y="518.28" width="12.63" height="13.76" rx="2.26" ry="2.26"/><rect class="cls-10" x="199.88" y="518.28" width="12.63" height="13.76" rx="2.26" ry="2.26"/><rect class="cls-10" x="182.91" y="518.28" width="12.87" height="13.76" rx="2.3" ry="2.3"/><rect class="cls-10" x="182.91" y="534.42" width="21.93" height="13.76" rx="2.46" ry="2.46"/><rect class="cls-10" x="182.91" y="550.57" width="25.15" height="13.76" rx="2.46" ry="2.46"/><rect class="cls-10" x="182.91" y="566.71" width="33.92" height="13.76" rx="2.46" ry="2.46"/><rect class="cls-10" x="182.91" y="582.85" width="16.96" height="13.76" rx="2.46" ry="2.46"/><rect class="cls-10" x="206.89" y="534.42" width="13.52" height="13.76" rx="2.42" ry="2.42"/><rect class="cls-10" x="223.58" y="534.42" width="13.52" height="13.76" rx="2.42" ry="2.42"/><rect class="cls-10" x="240.27" y="534.42" width="13.52" height="13.76" rx="2.42" ry="2.42"/><rect class="cls-10" x="256.96" y="534.42" width="13.52" height="13.76" rx="2.42" ry="2.42"/><rect class="cls-10" x="273.65" y="534.42" width="13.52" height="13.76" rx="2.42" ry="2.42"/><rect class="cls-10" x="290.34" y="534.42" width="13.52" height="13.76" rx="2.42" ry="2.42"/><rect class="cls-10" x="307.03" y="534.42" width="13.52" height="13.76" rx="2.42" ry="2.42"/><rect class="cls-10" x="323.72" y="534.42" width="13.52" height="13.76" rx="2.42" ry="2.42"/><rect class="cls-10" x="340.41" y="534.42" width="13.52" height="13.76" rx="2.42" ry="2.42"/><rect class="cls-10" x="357.1" y="534.42" width="13.53" height="13.76" rx="2.42" ry="2.42"/><rect class="cls-10" x="373.79" y="534.42" width="13.52" height="13.76" rx="2.42" ry="2.42"/><rect class="cls-10" x="390.48" y="534.42" width="13.52" height="13.76" rx="2.42" ry="2.42"/><rect class="cls-10" x="211.54" y="550.57" width="13.52" height="13.76" rx="2.42" ry="2.42"/><rect class="cls-10" x="228.23" y="550.57" width="13.52" height="13.76" rx="2.42" ry="2.42"/><rect class="cls-10" x="244.92" y="550.57" width="13.52" height="13.76" rx="2.42" ry="2.42"/><rect class="cls-10" x="261.61" y="550.57" width="13.52" height="13.76" rx="2.42" ry="2.42"/><rect class="cls-10" x="278.3" y="550.57" width="13.52" height="13.76" rx="2.42" ry="2.42"/><rect class="cls-10" x="294.99" y="550.57" width="13.52" height="13.76" rx="2.42" ry="2.42"/><rect class="cls-10" x="311.68" y="550.57" width="13.52" height="13.76" rx="2.42" ry="2.42"/><rect class="cls-10" x="328.37" y="550.57" width="13.53" height="13.76" rx="2.42" ry="2.42"/><rect class="cls-10" x="345.05" y="550.57" width="13.53" height="13.76" rx="2.42" ry="2.42"/><rect class="cls-10" x="361.75" y="550.57" width="13.52" height="13.76" rx="2.42" ry="2.42"/><rect class="cls-10" x="378.43" y="550.57" width="13.52" height="13.76" rx="2.42" ry="2.42"/><rect class="cls-10" x="220.28" y="566.71" width="13.52" height="13.76" rx="2.42" ry="2.42"/><rect class="cls-10" x="236.97" y="566.71" width="13.52" height="13.76" rx="2.42" ry="2.42"/><rect class="cls-10" x="253.65" y="566.71" width="13.52" height="13.76" rx="2.42" ry="2.42"/><rect class="cls-10" x="270.34" y="566.71" width="13.52" height="13.76" rx="2.42" ry="2.42"/><rect class="cls-10" x="287.03" y="566.71" width="13.52" height="13.76" rx="2.42" ry="2.42"/><rect class="cls-10" x="303.72" y="566.71" width="13.53" height="13.76" rx="2.42" ry="2.42"/><rect class="cls-10" x="320.41" y="566.71" width="13.53" height="13.76" rx="2.42" ry="2.42"/><rect class="cls-10" x="337.1" y="566.71" width="13.52" height="13.76" rx="2.42" ry="2.42"/><rect class="cls-10" x="353.79" y="566.71" width="13.52" height="13.76" rx="2.42" ry="2.42"/><rect class="cls-10" x="370.48" y="566.71" width="13.53" height="13.76" rx="2.42" ry="2.42"/><rect class="cls-10" x="387.17" y="566.71" width="20.63" height="13.76" rx="2.46" ry="2.46"/><rect class="cls-10" x="203.31" y="582.85" width="13.53" height="13.76" rx="2.42" ry="2.42"/><rect class="cls-10" x="220" y="582.85" width="13.52" height="13.76" rx="2.42" ry="2.42"/><rect class="cls-10" x="236.69" y="582.85" width="13.52" height="13.76" rx="2.42" ry="2.42"/><rect class="cls-10" x="253.38" y="582.85" width="13.52" height="13.76" rx="2.42" ry="2.42"/><rect class="cls-10" x="270.07" y="582.85" width="13.52" height="13.76" rx="2.42" ry="2.42"/><rect class="cls-10" x="286.76" y="582.85" width="13.52" height="13.76" rx="2.42" ry="2.42"/><rect class="cls-10" x="303.45" y="582.85" width="13.52" height="13.76" rx="2.42" ry="2.42"/><rect class="cls-10" x="320.14" y="582.85" width="13.53" height="13.76" rx="2.42" ry="2.42"/><rect class="cls-10" x="336.83" y="582.85" width="13.52" height="13.76" rx="2.42" ry="2.42"/><rect class="cls-10" x="353.52" y="582.85" width="13.52" height="13.76" rx="2.42" ry="2.42"/><rect class="cls-10" x="370.21" y="582.85" width="20.64" height="13.76" rx="2.46" ry="2.46"/><rect class="cls-10" x="394.94" y="582.85" width="12.87" height="13.76" rx="2.3" ry="2.3"/><path class="cls-10" d="M266.8,608.19h86.73a2.4,2.4,0,0,1,2.4,2.4v41.7a2.4,2.4,0,0,1-2.4,2.4H266.8a2.41,2.41,0,0,1-2.41-2.41V610.6A2.4,2.4,0,0,1,266.8,608.19Z"/><rect class="cls-10" x="264.39" y="657.82" width="44.13" height="9.66" rx="0.5" ry="0.5"/><rect class="cls-10" x="311.8" y="657.82" width="44.13" height="9.66" rx="0.5" ry="0.5"/><path class="cls-11" d="M171.51,417.93H334.43q.13,10.1.23,20.19c.08,6.73.18,13.46.26,20.19h-152q-2.86-10.1-5.69-20.19T171.51,417.93Z"/><path class="cls-12" d="M171.51,417.93H334.43c0,.76,0,1.52,0,2.28H172.15C171.94,419.45,171.74,418.69,171.51,417.93Z"/><path class="cls-13" d="M214.29,389.63H384.84q-.73,10.11-1.42,20.2c-.46,6.73-.89,13.46-1.36,20.19H222.41c-1.39-6.73-2.72-13.46-4.08-20.19S215.62,396.37,214.29,389.63Z"/><path class="cls-14" d="M214.29,389.63H384.84c-.09.76-.15,1.52-.17,2.29h-170C214.55,391.15,214.4,390.39,214.29,389.63Z"/><path class="cls-15" d="M227.5,401.92H370.07c0-.24,0-.5.06-.75H227.38C227.41,401.42,227.47,401.68,227.5,401.92Z"/><path class="cls-3" d="M227.76,403.33H370a6.27,6.27,0,0,1,0-.75H227.64C227.67,402.83,227.73,403.08,227.76,403.33Z"/><path class="cls-3" d="M229.08,410.47h38l-.09-.74H228.94C229,410,229,410.23,229.08,410.47Z"/><path class="cls-3" d="M229.34,411.89h38c0-.25-.05-.5-.08-.76h-38C229.23,411.39,229.29,411.64,229.34,411.89Z"/><path class="cls-3" d="M229.86,414.71h37.78c-.06-.25-.06-.5-.12-.75h-37.8C229.78,414.21,229.81,414.46,229.86,414.71Z"/><path class="cls-3" d="M280.39,410.47h38a6,6,0,0,1,0-.74H280.33C280.36,410,280.36,410.23,280.39,410.47Z"/><path class="cls-3" d="M280.53,411.89h37.92a6.52,6.52,0,0,0,0-.76h-38Z"/><path class="cls-3" d="M331.72,411.89h37.92c0-.25,0-.5,0-.76h-38A6.35,6.35,0,0,0,331.72,411.89Z"/><path class="cls-3" d="M331.72,413.3h37.83c0-.25,0-.5.06-.75H331.72A6.26,6.26,0,0,1,331.72,413.3Z"/><path class="cls-3" d="M256.54,418.55h40.23c0-.25,0-.5,0-.75H256.45A6.39,6.39,0,0,0,256.54,418.55Z"/><path class="cls-3" d="M256.74,420h40.15a6.32,6.32,0,0,0-.06-.75h-40.2A4.85,4.85,0,0,1,256.74,420Z"/><path class="cls-16" d="M230.41,417.8h19.74c.09.74.21,1.47.32,2.21H230.82C230.7,419.27,230.56,418.54,230.41,417.8Z"/><path class="cls-3" d="M329.12,418.55h40.2c0-.25,0-.5.06-.75H329.09C329.09,418.05,329.12,418.3,329.12,418.55Z"/><path class="cls-3" d="M329.14,420h40.12c0-.25,0-.5,0-.75H329.12C329.14,419.46,329.14,419.71,329.14,420Z"/><path class="cls-17" d="M303.07,417.8h19.74c0,.74,0,1.47.06,2.21H303.22C303.16,419.27,303.13,418.54,303.07,417.8Z"/><path class="cls-3" d="M257.18,423.06h39.94c0-.24,0-.5-.06-.75h-40A6.15,6.15,0,0,0,257.18,423.06Z"/><path class="cls-3" d="M329.17,421.65h40a6.26,6.26,0,0,0,0-.75h-40Z"/><path class="cls-16" d="M303.28,420.9H322.9c0,.73,0,1.47.09,2.2H303.42C303.36,422.37,303.33,421.63,303.28,420.9Z"/><path class="cls-3" d="M257.44,424.75h39.82c0-.24-.05-.5-.08-.75H257.29C257.35,424.25,257.38,424.51,257.44,424.75Z"/><path class="cls-3" d="M257.61,426.16h39.74a6.49,6.49,0,0,0-.06-.75H257.52Z"/><path class="cls-17" d="M231.57,424h19.51c.11.74.23,1.47.35,2.21H232C231.83,425.47,231.69,424.74,231.57,424Z"/><path class="cls-3" d="M329.26,424.75h39.8a6.26,6.26,0,0,0,0-.75H329.23A6.19,6.19,0,0,0,329.26,424.75Z"/><path class="cls-3" d="M329.26,426.16H369c0-.25,0-.49.06-.75H329.26Z"/><path class="cls-18" d="M303.48,424H323c0,.74.06,1.47.08,2.21H303.62C303.57,425.47,303.51,424.74,303.48,424Z"/><path class="cls-18" d="M283.48,405.73H449.75q-1.77,10.09-3.52,20.19c-1.17,6.73-2.37,13.46-3.56,20.19H287.32c-.66-6.73-1.25-13.46-1.91-20.19S284.14,412.46,283.48,405.73Z"/><path class="cls-19" d="M283.48,405.73H449.75c-.14.76-.26,1.52-.4,2.28H283.71C283.65,407.25,283.57,406.49,283.48,405.73Z"/><path class="cls-19" d="M311.22,416.3H419.75c-.06.43-.11.86-.17,1.29H311.28C311.25,417.16,311.25,416.73,311.22,416.3Z"/><path class="cls-19" d="M314.81,431.42h54.25l-.09,1.29H314.84C314.82,432.29,314.82,431.85,314.81,431.42Z"/><path class="cls-6" d="M519.79,741.64l-3.52-13.84,5-1.26-3.9-15.34,4.59-1.16L518.8,697.8c-3.59-.81-6.6-2.32-8.49-4.74l-21-26.75-5.17-21.94c1.63-5,11.27-11.43,13.63-.79l2.28,10.33,7.37,10.67c-1.79-6.87-3.26-12.7-4.56-17.47l-11-32.27L486,600.54c-3.21-9.41,10.77-13.82,13.85-4.8l5.39,13,9.29,27.17c.52-.54,1.06-1.06,1.62-1.55l-6.31-27.08-6.74-19.32c-2.19-9.4,11.08-12.52,14.27-3.34l6.83,19.68,5.44,23.39a11,11,0,0,1,1.6-.28l-3.33-23.08-4.95-17c-1.27-8.77,12.94-12.29,14.53-1.86l5.19,17.5,4,26a8.64,8.64,0,0,1,2,1.05l-1-17.07-3.55-13c-2.77-10.17,14.11-11.36,14.63-.94l4,14.86,1,29.58c4.52,18.87,2.51,32.93-4.93,42.14l3.61,14.23,4.6-1.17,3.9,15.33,5-1.25,7.37,29Z"/><rect class="cls-20" x="507.58" y="667.1" width="41.75" height="58.26" transform="translate(-155.29 151.72) rotate(-14.27)"/><path class="cls-21" d="M491.91,638c1.31,4.77,2.77,10.6,4.56,17.48l-7.36-10.68-2.29-10.33c-2.35-10.64-12-4.18-13.63.79l5.17,21.94,21,26.75c5,6.33,17.53,6.45,28.38,4,22.44-5,32.36-23,25-53.69l-1-29.58-4-14.86c-.51-10.42-17.4-9.23-14.62.94l3.54,13,1,17.07a8.64,8.64,0,0,0-2-1.05l-4-26-5.18-17.5c-1.6-10.43-15.81-6.91-14.54,1.86l4.95,17,3.34,23.08a10.77,10.77,0,0,0-1.6.28l-5.45-23.38-6.83-19.69c-3.18-9.18-16.46-6.06-14.27,3.34l6.75,19.32,6.3,27.08c-.56.49-1.1,1-1.61,1.55l-9.29-27.17-5.4-13c-3.08-9-17.06-4.6-13.85,4.8l5.86,14.3Z"/><rect class="cls-8" x="503.8" y="692.07" width="51.22" height="15.83" transform="translate(-156.2 152.09) rotate(-14.27)"/><polygon class="cls-18" points="508.31 741.64 501.59 715.22 561.13 700.08 571.7 741.64 508.31 741.64"/><path class="cls-6" d="M149.66,741.64l21.92-38.27-4.44-2.53L175,687.1l-4.11-2.35,6.41-11.19a16.55,16.55,0,0,0,9.31-2.06l49.15-30.15c-.84-5.25-6.2-13.32-15.88-8.32L197,644.83c3.57-6.14,6.54-11.36,9.08-15.62l32.15-46.94c5.61-8.2-6.68-16.2-12.06-8.34l-28.3,41.33c-.35-.66-.73-1.3-1.14-1.93l11.9-22c4.63-8.47-8.22-15.59-12.85-7l-10.27,18.95a11.27,11.27,0,0,0-1.47-.7l6.84-15.52c3.57-8.11-9.18-15.3-13.51-5.69l-8.58,18.56a8.57,8.57,0,0,0-2.19.49l3.34-9.81c3.41-10-10.55-14.73-13.84-4.82l-7.61,23.54c-9.41,17-11.23,31.06-6.52,41.92L134.67,664l-4.11-2.35-7.87,13.73-4.43-2.54-39.41,68.8Z"/><rect class="cls-20" x="106.96" y="644.43" width="58.26" height="41.75" transform="translate(-508.87 452.75) rotate(-60.2)"/><path class="cls-21" d="M191.39,616.64c-2.54,4.25-5.51,9.47-9.07,15.61l22.88-11.8c9.69-5,15,3.07,15.89,8.33l-49.15,30.15c-6.85,4.2-18.61,1.51-28.42-3.74-20.26-10.87-25-30.84-9.71-58.42l7.61-23.55c3.29-9.9,17.24-5.15,13.84,4.82l-3.35,9.81a8.67,8.67,0,0,1,2.19-.49l8.58-18.55c4.33-9.62,17.08-2.43,13.51,5.68L169.36,590a11.31,11.31,0,0,1,1.47.69l10.27-19c4.63-8.54,17.48-1.43,12.85,7l-11.91,22c.41.63.79,1.27,1.15,1.93l28.29-41.32c5.39-7.87,17.67.13,12.06,8.33Z"/><rect class="cls-8" x="126.25" y="643.05" width="15.83" height="51.22" transform="translate(-512.75 452.78) rotate(-60.2)"/><polygon class="cls-18" points="127.77 741.64 156.89 690.8 103.58 660.26 56.97 741.64 127.77 741.64"/><path class="cls-3" d="M184.92,446.49H256c0-.25,0-.5,0-.75H184.86Z"/><circle class="cls-22" cx="56.97" cy="185.86" r="54.78"/><circle class="cls-22" cx="312.02" cy="185.86" r="54.78"/><circle class="cls-22" cx="560.71" cy="185.86" r="54.78"/><circle class="cls-23" cx="61.84" cy="186.8" r="46.25" transform="translate(-6.16 2.15) rotate(-1.9)"/><path class="cls-23" d="M122.88,184.77a61.44,61.44,0,1,1-61.44-61.44A61.44,61.44,0,0,1,122.88,184.77Z"/><path class="cls-24" d="M61.44,237.87a53.1,53.1,0,1,1,53.1-53.1A53.16,53.16,0,0,1,61.44,237.87Zm0-100.9a47.8,47.8,0,1,0,47.8,47.8A47.85,47.85,0,0,0,61.44,137Z"/><path class="cls-24" d="M85.28,193.46a15.11,15.11,0,0,0-6.61-12.38A14.35,14.35,0,0,0,82.77,171c0-7-4.14-11.35-9-13.66v-8H64.56v5.89H54.28v-5.89H45v5.89H40v8.66h5v36H38.41v8.67H45v9.49h9.24v-9.29H64.56v9.29H73.8v-9.93A15.48,15.48,0,0,0,85.28,193.46ZM64.73,163.92c1.58.06,8.81.66,8.81,7.18,0,.08,0,.16,0,.24a6.1,6.1,0,0,1-1.82,4c-1.47,1.46-3.88,2.4-7,2.76H54.28V163.92Zm4.45,36.2H54.28V187h7.21c1.29,0,2.52-.06,3.71-.17h4a6.66,6.66,0,1,1,0,13.32Z"/><circle class="cls-23" cx="311.63" cy="186.8" r="46.25" transform="translate(-6.03 10.44) rotate(-1.9)"/><path class="cls-23" d="M372.67,184.77a61.45,61.45,0,1,1-61.44-61.44A61.44,61.44,0,0,1,372.67,184.77Z"/><path class="cls-24" d="M311.23,237.87a53.1,53.1,0,1,1,53.09-53.1A53.16,53.16,0,0,1,311.23,237.87Zm0-100.9a47.8,47.8,0,1,0,47.8,47.8A47.86,47.86,0,0,0,311.23,137Z"/><polygon class="cls-24" points="311.82 143.31 285.37 187.71 311.24 203.63 337.42 188.22 311.82 143.31"/><polygon class="cls-24" points="311.21 207.11 285.91 190.25 311.03 225.63 336.83 190.75 311.21 207.11"/><polygon class="cls-25" points="311.48 178.83 285.37 187.71 311.24 203.63 337.42 188.22 311.48 178.83"/><circle class="cls-23" cx="562.4" cy="187.46" r="46.25" transform="translate(-5.91 18.76) rotate(-1.9)"/><path class="cls-23" d="M623.44,185.43A61.45,61.45,0,1,1,562,124,61.44,61.44,0,0,1,623.44,185.43Z"/><path class="cls-24" d="M562,238.53a53.1,53.1,0,1,1,53.09-53.1A53.16,53.16,0,0,1,562,238.53Zm0-100.9a47.81,47.81,0,1,0,47.8,47.8A47.87,47.87,0,0,0,562,137.63Z"/><path class="cls-26" d="M573.91,188.71s-6-3.08-3.39-8.54v-.06c.37-.22.73-.44,1.09-.7a14.29,14.29,0,1,0-15.16.82s1.37,8.27-6.94,9a14.28,14.28,0,1,0,7.44,12.24s4-6.7,11-2.51h0a14.28,14.28,0,1,0,6-10.29Z"/><path class="cls-24" d="M285.51,48.13,283.3,37.79a9.55,9.55,0,0,1,18.68-4l2.21,10.34,3.28-.71-2.21-10.33A12.91,12.91,0,1,0,280,38.5l2.22,10.33Z"/><g class="cls-27"><path class="cls-24" d="M280.5,40.77l0-.18S280.48,40.66,280.5,40.77Z"/><path class="cls-28" d="M301.47,26.38c1,1.38,1.84,3,1.43,3.4-1,1-1.87-.46-1.87-.46a10.71,10.71,0,0,0-14.5-2.58c-7.07,4.52-4.15,13.33-4,14.53a.65.65,0,0,1-.73.85c-.89.15-1.22-.86-1.34-1.35l1.73,8.06,3.28-.7L283.3,37.79a9.55,9.55,0,0,1,18.68-4l2.21,10.34,3.28-.71-2.21-10.33A12.88,12.88,0,0,0,301.47,26.38Z"/><rect class="cls-28" x="281.52" y="42.18" width="3.36" height="6.37" transform="translate(-3.22 60.32) rotate(-12.09)"/><rect class="cls-28" x="303.49" y="37.48" width="3.36" height="6.37" transform="translate(-1.75 64.81) rotate(-12.09)"/></g><path class="cls-29" d="M281.29,41.06l-.83-3.86s-1.64-11.65,11.86-13.73c0,0-8.82,2.37-10.48,8.41a12.66,12.66,0,0,0-.66,5.45c.43,2.48.62,3.62.62,3.62s.23.32,0,.48S281.36,41.42,281.29,41.06Z"/><rect class="cls-24" x="278.03" y="40.47" width="37.71" height="30.34" transform="translate(-5.07 63.41) rotate(-12.09)"/><path class="cls-30" d="M277.93,45.91l32.88-7s-2.63,9.08-14.13,11.83A20.4,20.4,0,0,1,277.93,45.91Z"/><path class="cls-23" d="M300.51,52.74a4.15,4.15,0,1,0-4.56,5l.44,6.37,1.47-.31,1.47-.32,1.48-.31-2.21-6A4.14,4.14,0,0,0,300.51,52.74Z"/><rect class="cls-31" x="330.35" y="45.06" width="8.9" height="2.72" transform="translate(185.47 349.64) rotate(-71.67)"/><path class="cls-32" d="M337.63,42.67l-2.8,8.44a.13.13,0,0,1-.16,0l-2.59-.86c-.07,0-.12-.08-.1-.13l2.79-8.45s.09-.07.17,0l2.58.85C337.6,42.56,337.64,42.62,337.63,42.67Zm-3,8.27,2.74-8.27L335,41.9l-2.74,8.27Z"/><polygon class="cls-31" points="328.8 67.2 329.82 64.12 332.36 62.37 330.59 61.78 332.48 56.08 330.39 55.39 326.76 66.37 328.8 67.2"/><path class="cls-32" d="M332.5,62.41l0,0L330,64.19l-1,3.06a.1.1,0,0,1-.06,0,.25.25,0,0,1-.12,0l-2-.84c-.06,0-.1-.08-.09-.12l3.64-11a.13.13,0,0,1,.16-.05l2.09.69c.07,0,.12.09.11.14l-1.86,5.61,1.63.54a.17.17,0,0,1,.1.08A.11.11,0,0,1,332.5,62.41Zm-3.8,4.65,1-3,0,0,2.41-1.65-1.56-.52c-.07,0-.12-.08-.1-.13l1.86-5.61-1.82-.61-3.58,10.81Z"/><polygon class="cls-31" points="336.58 36.72 338.5 37.92 339.9 33.69 338.08 32.19 336.58 36.72"/><path class="cls-32" d="M340,33.74,338.63,38a.08.08,0,0,1-.08.05.16.16,0,0,1-.13,0l-1.92-1.2s-.07-.07-.06-.11L338,32.14s0,0,.09,0a.18.18,0,0,1,.13,0L340,33.64A.09.09,0,0,1,340,33.74Zm-1.63,4,1.35-4-1.59-1.31-1.43,4.31Z"/><polygon class="cls-31" points="330.99 53.6 333.75 53.93 334.17 52.66 331.57 51.83 330.99 53.6"/><path class="cls-32" d="M334.3,52.71,333.88,54s-.06.06-.12.05L331,53.69a.14.14,0,0,1-.11,0,.12.12,0,0,1,0-.09l.59-1.76s.09-.07.16,0l2.59.83.09.06A.09.09,0,0,1,334.3,52.71Zm-.67,1.11.37-1.11L331.68,52l-.52,1.56Z"/><polygon class="cls-31" points="336.17 37.96 335.72 39.32 335.54 39.87 335.13 41.08 337.89 41.42 338.31 40.15 337.39 39.85 337.85 38.48 336.17 37.96"/><path class="cls-32" d="M338.45,40.19h0L338,41.46s-.06.06-.12,0l-2.75-.33a.33.33,0,0,1-.12,0,.09.09,0,0,1,0-.09l1-3.13s.08-.07.16,0l1.67.52a.15.15,0,0,1,.09.06.08.08,0,0,1,0,.08l-.42,1.28.75.24h0C338.41,40.08,338.46,40.14,338.45,40.19Zm-.67,1.12.37-1.12-.78-.25a.19.19,0,0,1-.09,0,.09.09,0,0,1,0-.08l.42-1.28-1.41-.44-1,2.92Z"/><g class="cls-33"><rect class="cls-34" x="330.35" y="45.06" width="8.9" height="2.72" transform="translate(185.47 349.64) rotate(-71.67)"/><polygon class="cls-34" points="328.8 67.2 329.82 64.12 332.36 62.37 330.59 61.78 332.48 56.08 330.39 55.39 326.76 66.37 328.8 67.2"/><polygon class="cls-34" points="336.58 36.72 338.5 37.92 339.9 33.69 338.08 32.19 336.58 36.72"/><polygon class="cls-34" points="330.99 53.6 333.75 53.93 334.17 52.66 331.57 51.83 330.99 53.6"/><polygon class="cls-34" points="336.17 37.96 335.72 39.32 335.54 39.87 335.13 41.08 337.89 41.42 338.31 40.15 337.39 39.85 337.85 38.48 336.17 37.96"/></g><polygon class="cls-35" points="338.04 31.14 337.05 30.31 332.28 30.58 322.82 59.12 321.05 58.53 322.15 61.15 321.19 64.04 327.14 66.48 326.57 65.78 338.04 31.14"/><path class="cls-34" d="M327.28,66.52s0,0,0,0a.15.15,0,0,1-.15,0l-6-2.44c-.07,0-.1-.08-.09-.13l.95-2.86-1.09-2.6a.07.07,0,0,1,0-.08.15.15,0,0,1,.13,0l1.64.54,9.42-28.45a.09.09,0,0,1,.09-.05l4.77-.27a.23.23,0,0,1,.14,0l1,.84a.1.1,0,0,1,0,.1L326.72,65.78l.54.66A.09.09,0,0,1,327.28,66.52ZM321.35,64l5.46,2.24-.35-.43a.09.09,0,0,1,0-.08l11.45-34.58-.88-.74-4.62.26L323,59.16a.12.12,0,0,1-.16,0l-1.54-.51,1,2.46a0,0,0,0,1,0,.05Z"/><polygon class="cls-31" points="327.35 66.72 327.39 66.58 327.14 66.48 327.35 66.72"/><path class="cls-32" d="M327.53,66.62l0,.15s-.05,0-.11,0a.22.22,0,0,1-.14-.06l-.2-.25a.07.07,0,0,1,0-.11.15.15,0,0,1,.15,0l.25.11C327.5,66.52,327.54,66.58,327.53,66.62Z"/><path class="cls-35" d="M310.22,68.36a12.21,12.21,0,1,0,15.44-7.75A12.21,12.21,0,0,0,310.22,68.36Zm14.61,9.83a4.75,4.75,0,1,1-3-6A4.76,4.76,0,0,1,324.83,78.19Z"/><path class="cls-32" d="M333.56,76.09a12.37,12.37,0,1,1-7.85-15.63A12.39,12.39,0,0,1,333.56,76.09Zm-23.19-7.68a12.06,12.06,0,1,0,15.24-7.65A12.07,12.07,0,0,0,310.37,68.41ZM325,78.24a4.9,4.9,0,1,1-3.11-6.19A4.91,4.91,0,0,1,325,78.24Zm-9-3a4.59,4.59,0,1,0,5.8-2.91A4.59,4.59,0,0,0,316,75.26Z"/><g class="cls-33"><path class="cls-34" d="M310.22,68.36a12.17,12.17,0,0,0,1,9.87,10.74,10.74,0,0,1-.07-7A10.86,10.86,0,0,1,331.74,78a10.54,10.54,0,0,1-1.66,3.15,12.21,12.21,0,1,0-19.86-12.83Z"/></g></g></g></g></svg>