<svg xmlns="http://www.w3.org/2000/svg" viewBox="0 0 198.89 167.25"><defs><style>.cls-1{fill:#2363c3;}.cls-2{fill:#f3f6fb;}.cls-3{fill:#e2e8f5;}.cls-4{fill:#155dc1;}.cls-5{fill:#0051bd;}.cls-6{fill:#0055bf;}.cls-7{fill:#d8e2f2;}.cls-8{fill:#175ec2;}.cls-9{fill:#195ec2;}.cls-10{fill:#155cc1;}.cls-11{fill:#0054be;}.cls-12{fill:#0757bf;}.cls-13{fill:#2464c3;}.cls-14{fill:#185ec2;}.cls-15{fill:#0558bf;}.cls-16{fill:#0056bf;}.cls-17{fill:#1c60c2;}.cls-18{fill:#0055be;}.cls-19{fill:#fefefe;}.cls-20{fill:#eef3f9;}.cls-21{fill:#5783ce;}.cls-22{fill:#145cc1;}.cls-23{fill:#0658bf;}.cls-24{fill:#dee7f5;}</style></defs><title>Asset 1</title><g id="Layer_2" data-name="Layer 2"><g id="Layer_1-2" data-name="Layer 1"><path class="cls-1" d="M122.52,119.53a44.77,44.77,0,0,1-12.34,1.71c-1.23-.73-2.62-.11-3.9-.44a.52.52,0,0,0-.13.34,1.25,1.25,0,0,0,.3.36c-1.66,1-3.47.84-5.27.72-2.67-.47-5.32-.77-8,.2a92.34,92.34,0,0,1-27,0c-1.62-1-3.29-.7-5-.2-8-1.11-15.93-2.25-23.91-3.32a3.52,3.52,0,0,1-3.45-3.39c-.63-4.05-1.84-8-1.58-12.18.82-3.69-.3-7.29-.43-10.94-1.68-11.36,3.74-20.52,9.24-29.65a5.54,5.54,0,0,1,3.1-2.37c10.25-11.83,23.27-19.27,38-24,1.52-1.91,3.83-2.14,5.94-2.79,4.42-1,8.76-2.54,13.4-2a7.18,7.18,0,0,1,1.39.11c1.51.33,3,.85,4.46-.27.19-.13.38-.25.57-.39a6.07,6.07,0,0,1,1.29-.54,11.66,11.66,0,0,1,5,.1,10.09,10.09,0,0,0,6.38-.09,3.94,3.94,0,0,1,3.62.85,59.09,59.09,0,0,1,29.25,14.94,1.59,1.59,0,0,0,1.87,1.81c2.43,1.33,3.29,4.44,6.07,5.38l.47-.12c2.54,6,7.36,10.44,10.58,16,4.34,7.5,7.86,15.39,11.71,23.12.82,1.66,1.1,2.85-.87,4.09-18.49,11.71-38.38,19.69-60.11,22.85-1.3-1-2.78-.38-4.84-.6C120.21,119.15,121.53,118.39,122.52,119.53Z"/><path class="cls-1" d="M95.3,167.22C61.91,166.8,40.89,147,35.68,120.9c8.77,1.37,17.26,3.65,26,4.61a223.43,223.43,0,0,0,33.73,1.16A188.22,188.22,0,0,0,169,108.25c4.44-2.11,8.62-4.8,12.84-7.34,2.78-1.68,4.28-1.61,4.08,2.19-.84,15.27-5.94,28.34-17,39.59-17.16,17.48-38.68,22.72-61.79,24.56A40.5,40.5,0,0,0,95.3,167.22Z"/><path class="cls-1" d="M161.93,53.33l-.47.12c0-.83.3-2-.13-2.44-5.92-6,1.87-7.89,3.5-11.56.87-2,2.45-.55,3.28.19,4.16,3.68,9.38,6.09,12.56,11,.8,1.23,2.17,3.15,4.46,1.77,1.87-1.13,1.82-2.62,1.67-4.66-.36-5,0-9.91,4.4-13.42,1.78.13,3.61,0,5.22,1s3.05,1.87,2.24,4.16a6.92,6.92,0,0,1-5,4.87c-1.21.29-2.7-.38-3.58,1.07a7.51,7.51,0,0,0,0,4.93c-.05,1,.27,2.55-.2,2.85-5.66,3.5-2.45,6.77-.15,10.45,5.13,8.21,4.89,8.11-3.27,13.45-3.76,2.46-5.41,2.29-7.31-2.15-3.27-7.67-8.66-14.08-14.16-20.31A3.38,3.38,0,0,0,161.93,53.33Z"/><path class="cls-1" d="M10.62,63.31a.42.42,0,0,1,.63.11,5.35,5.35,0,0,0,5-.08c2.25.17,3.44,1.68,4.12,3.57,1.08,3,2.15,2.67,3.87.38,2.07-2.76,4.52-5.24,6.71-7.91,3.16-3.86,6.57-4.59,10.43-1,1.31,1,1.28,2.22.34,3.47A54.42,54.42,0,0,0,30.78,87.62c0,.29-.4.5-.68.7s-.46.27-.7.39c-.69-.64-1-1.32-.61-1.7.13,1.2-.58,2.8.46,4.38.48,8.37.48,8.39-7,5.68-1.36-.49-2.65-1.15-4-1.73-2.62-1.34-.78-4.07-1.84-5.9a25.46,25.46,0,0,1,2.18-11.13c2.61-5.75-.84-8.67-4.32-11.87a14.3,14.3,0,0,0-5-.1,39.8,39.8,0,0,1-4.73-1.16C2.1,64.29-.11,63,0,60c.09-2.14.79-4,3.1-5C6,53.66,7.83,54.67,9.35,57,11.31,58.82,8.69,61.52,10.62,63.31Z"/><path class="cls-1" d="M115.19,20.54c1.78.25,3.59.4,5.35.75,6.89,1.38,6.88,1.4,5.67,8a1.59,1.59,0,0,1-1.53.32c-6.25.5-12.53-.43-18.76.56-1.46.41-3,.49-4.46,1-5,.31-9.76,1.73-14.56,3-1.63,0-3,1.17-4.68,1.07C78.83,35.86,78.6,33,77.79,31c-.94-2.27,1.44-2.66,2.64-3.47a42.44,42.44,0,0,1,17.06-6.26c1.18-.19,3.24.31,3.25-1.27A3.54,3.54,0,0,0,98,16.38a4.71,4.71,0,0,1-3.89-4.47,12,12,0,0,1,.07-6.64c1.83-3.4,4.37-6.12,8.52-5,3.4.89,6.64,2.6,7.61,6.64,1.09,4.56-1.27,7.63-4.87,9.44-3.23,1.63-1.9,2.63-.21,4.07A23.46,23.46,0,0,0,115.19,20.54Z"/><path class="cls-2" d="M30.1,88.32c-.27-9.75,4.1-17.75,9.5-25.39.93-1.32,3.12-2.32,1.79-4.59,1.5-.07,1.81,1.5,2.86,2.06C38.76,68.55,34.11,77.09,32.54,87a54.39,54.39,0,0,0-.31,5.43c.75,1.15.64,2-.86,2.25C30.74,92.57,32.16,90.1,30.1,88.32Z"/><path class="cls-3" d="M125.19,29.25l1,.06-1.94,2-4,.12a8.87,8.87,0,0,1-6,0l-6.07-.17a2,2,0,0,1-.25-1.66,1.66,1.66,0,0,1,1.51-.69C114.69,29.09,120,28.51,125.19,29.25Z"/><path class="cls-4" d="M31.37,94.64l.86-2.25a13.56,13.56,0,0,1,.11,11Z"/><path class="cls-5" d="M95.3,167.22a18,18,0,0,1,11.89,0Z"/><path class="cls-6" d="M115.19,20.54a12,12,0,0,1-9.94-.14Z"/><path class="cls-7" d="M82.22,35.24a5.5,5.5,0,0,1,4-1.83c.65.57,1.82.1,2.25,1.13l-6.27,1.82Z"/><path class="cls-8" d="M10.62,63.31c-2.52-1.67-1-4.16-1.27-6.27C12.81,58.51,10.08,61.24,10.62,63.31Z"/><path class="cls-9" d="M196.42,35.33c-1.78-.17-3.77.77-5.22-1C193.22,33.22,195.13,32.69,196.42,35.33Z"/><path class="cls-10" d="M9.25,66.34c1.7-1.4,3.37-1.47,5,.1A5.24,5.24,0,0,1,9.25,66.34Z"/><path class="cls-11" d="M93.23,122.42c2.61-1.65,5.26-1.43,8-.2Z"/><path class="cls-12" d="M16.4,89.44l1.85,5.9C14,94.49,17,91.4,16.4,89.44Z"/><path class="cls-13" d="M94.2,5.27q0,3.32-.07,6.63A5.64,5.64,0,0,1,94.2,5.27Z"/><path class="cls-14" d="M29.25,91.39c-1.59-1.41-1-3.16-.81-5,1.26.49.58,1.61,1,2.3Z"/><path class="cls-9" d="M122.52,119.53l-5.4-.41c2.9-.87,4.57-1.22,6.12.28l-.33.22Z"/><path class="cls-15" d="M106.45,121.5c-.34-.31-1.68-.55-.92-.84a4.21,4.21,0,0,1,4.65.58Z"/><path class="cls-16" d="M16.26,63.34c-1.64,1.57-3.31,1.53-5,.08Z"/><path class="cls-17" d="M155.39,48.07c-.59,1.17-1.25.67-1.87.06s-1.16-1.25,0-1.87Z"/><path class="cls-13" d="M190.06,50.36a3.72,3.72,0,0,1,0-4.93Z"/><path class="cls-18" d="M61.28,122.25c1.72-1.27,3.39-1.39,5,.2Z"/><path class="cls-19" d="M101.41,78.15c0,12.78-11.49,24.66-24.35,25.1-11.6.39-23.66-12.31-23.67-24.93,0-13.14,11-23.89,24.33-23.84A23.57,23.57,0,0,1,101.41,78.15Z"/><path class="cls-19" d="M161.15,71.2c-1.52,5.42-3.8,10.09-9.38,12.67-9.65,4.46-19.22-2.5-20.64-11s4.2-19.11,18.12-17.65c1.41-.84,2.2.08,3,1.05,4.94,2.66,7.62,6.95,8.89,12.27A1.68,1.68,0,0,1,161.15,71.2Z"/><path class="cls-20" d="M88.5,34.54c-.85-.19-1.78-.21-2.25-1.13,4.8-1.53,9.62-3,14.72-3.13,2.43-.28,4.87-1.24,7.27.11q0,.43-.06.87l.14.28c-1.86,1.63-4.14.11-6.12.82Z"/><path class="cls-21" d="M102.2,32.36c1.9-1.33,4-.86,6.12-.82,0,.29-.06.57-.08.86-1.59.82-3.23.53-4.87.2Z"/><path class="cls-22" d="M114.25,31.43h6A4.63,4.63,0,0,1,114.25,31.43Z"/><path class="cls-22" d="M161.15,71.2l0-2.62c1.83,1,1.28,2.4.67,3.82Z"/><path class="cls-14" d="M103.37,32.6l4.87-.2C106.67,33.86,105.05,33.79,103.37,32.6Z"/><path class="cls-8" d="M152.23,56.31l-3-1.05c.08-.62.18-1.35,1-1.19A2.18,2.18,0,0,1,152.23,56.31Z"/><path class="cls-23" d="M125.19,29.25l-17,.27c-1,.43-2,.66-3-.23A46.36,46.36,0,0,1,125.19,29.25Z"/><path class="cls-24" d="M105.26,29.29l3,.23v.87L101,30.28Z"/></g></g></svg>