<svg xmlns="http://www.w3.org/2000/svg" viewBox="0 0 2071.55 3818.02"><defs><style>.cls-1{fill:none;}.cls-2{fill:#54667a;}.cls-3{fill:#fee2ca;}.cls-4{fill:#c3977a;}.cls-5{fill:#e0bfb1;}.cls-6{fill:#f9e6d7;}.cls-7{fill:#fff;}.cls-8{fill:#758595;}.cls-9{fill:#e8af2e;}.cls-10{fill:#f9ca35;}.cls-11{fill:#c38728;}</style></defs><title>Asset 6</title><g id="Layer_2" data-name="Layer 2"><g id="Layer_3" data-name="Layer 3"><polygon class="cls-1" points="1589.21 1124.49 1562.47 1082.09 1045.74 1792.04 1589.21 1124.49"/><path class="cls-1" d="M903.68,1049.75c-28.46,21.69-65.25,42.37-112.73,58.74,0,0-48.61,20-102.36,31.88l-.06.13c-2.66,5.31-88.25,175.76-166.19,236.71-79.17,61.89-40.55,99.55-40.55,99.55s44.62-.93,87.66-35.66A171.06,171.06,0,0,0,587,1424.79l70.65-5.26L866.5,1105.61Z"/><rect class="cls-2" x="22.71" y="3045.52" width="793.73" height="751.28" transform="translate(-3001.58 3840.73) rotate(-90)"/><path class="cls-3" d="M754.82,818.1s-25.57,10.94-.8,28c0,0,42.6,38.43,124.8-7.77,0,0,77.8-32.3,82.81-83l1-28.61Z"/><path class="cls-4" d="M961.51,937.64l-40.22,65.8c-28.43,46.52-71.21,82.82-122.21,102.11q-2.21.84-4.46,1.65c-1.22.44-2.44.88-3.67,1.29,0,0-48.61,20-102.36,31.88l-.06.13c-2.66,5.31-100.67,150-166.19,236.71-53,70.15-67.81,175.31-67.81,175.31s-35,24.87-62.11-16.34-3.06-70.19-3.06-70.19-115.49-53.87-121.87-90.9c0,0,6.39-21.25,90.21,26.13,0,0,28.33,18.41,57.38,18.21,0,0,15.72,2.35,35.39-18a133.8,133.8,0,0,1,29-23c8.37-4.84,18.08-9.87,26.62-12.77,0,0,9.36-5.35,75.58-96.46,0,0,56.17-83,63.31-123.83,0,0-142.26-56.21-129-80.68,0,0,197.42,24.08,316.11-40.1C832.14,1024.6,886.1,993.06,961.51,937.64Z"/><path class="cls-5" d="M1645.45,915.82,1818.57,698c21.45-32.05,24.12-65.58,19.43-94.45v0c-7.23-44.53-31.88-78-31.88-78-59.2-89.84-129.54-77.45-168.73-60.11-18.64,8.24-29.5,18-29.5,18l-227,317.3,162.07,258.21Z"/><path class="cls-6" d="M2051.57,1497.34c-.27,4.4-.46,8.56-.7,12.7a184.21,184.21,0,0,1-4.73,34.22s-19.31,85.31-57.56,114.5c0,0-55.92,73.87-78.4,94.88-.59.54-1.15,1-1.67,1.5s-1,.84-1.41,1.2l-.51.42-.48.36-.44.34c-18.17,13.13-73.31,123-73.31,123l-226.14,399.17S1564.16,2383,1394.71,2501h0l-.09.07h0c-2.58,2.3-55.28,49.89-72.86,129.49-.11.52-.23,1.05-.34,1.57l-.45,2.18c-.16.73-.31,1.46-.43,2.2-.3,1.45-.57,2.91-.81,4.37-.15.77-.29,1.56-.41,2.33-5.36,32.41-1.39,73.29-.41,103,2,59.57,14.28,140.27,31.72,202.29l-41.83,121.07,37.14,431.66L276.6,3613.94l11.51-598,1.72-469.28a163.3,163.3,0,0,0-10.92-54.55c-18.35-47.5-101.93-205.76-124.6-257.89l401.6-821.72a166.48,166.48,0,0,0,14.24-13.69l70.59-4.85L847.42,1078l36.77-56.22h0L982,872.28l708.67-823.2C1710.49,18.78,1743.87-.16,1780,0c28.19.13,75.85,8.22,98.11,47.43,18.9,33.25,23,72.86,12.51,109.32-11.14,38.75-62.23,102.35-121.87,208.72L1401.11,833l141.82,225.93-511.76,714.18L1570,1101.92l166.46,265.19-133,171.25-322.17,395.83L1271.07,1963c3.91-4.67,462.63-566,532.69-584,0,0,17.56-16,48-27.93,88.15-34.45,186.34,21.73,198.62,115.57A185.85,185.85,0,0,1,2051.57,1497.34Z"/><path class="cls-5" d="M2050.87,1510a184.21,184.21,0,0,1-4.73,34.22s-19.31,85.31-57.56,114.5c0,0-55.92,73.87-78.4,94.88-.59.54-1.15,1-1.67,1.5s-1,.84-1.41,1.2l-.51.42-.48.36-.44.34c-18.17,13.13-73.31,123-73.31,123l-226.14,399.17S1564.16,2383,1394.71,2501h0l-.09.07h0c-2.62,2.07-54.27,43.81-72.86,129.49-.11.52-.23,1-.34,1.57l-.45,2.18-.43,2.2c-.29,1.44-.56,2.9-.81,4.37-.15.77-.29,1.56-.41,2.33-3-8.05-27.09-67.45-116.54-133.77l-138.29-88.73s-22.28-19.29-13.09-28.08c0,0,52.44,38.62,78.84,40.34,0,0,134.92,49.8,242.89-19.54,0,0,89.21-25,211.3-196.11,0,0,65.1-88.45,134.88-228.13l124.51-210.25s-102.86,26.65-107.68-11.17l-4.89-58.33s54.88,45,92.67,36.31c0,0,37.11,4.65,84-55.27Z"/><path class="cls-5" d="M1936.26,1164.72c119.08-113-3.34-261.06-3.34-261.06-39.67-46.3-108.94-24.17-108.94-24.17l-254,214.44,59.4,338.47Z"/><rect class="cls-7" x="661.36" y="2248.37" width="267.71" height="1333.44" transform="translate(-2119.87 3710.3) rotate(-90)"/><rect class="cls-8" x="403.03" y="2669.88" width="793.73" height="1502.56" transform="translate(-2621.26 4221.05) rotate(-90)"/><path class="cls-9" d="M1401.34,588.36c-371.81-110.11-762.53,102.08-872.67,473.92s102.11,762.54,474,872.66,762.54-102.1,872.69-473.92S1773.22,698.44,1401.34,588.36Z"/><path class="cls-10" d="M1365.34,710c-304.65-90.18-624.74,83.71-715,388.37s83.68,624.78,388.33,715,624.74-83.62,714.95-388.31S1670,800.21,1365.34,710Z"/><path class="cls-11" d="M1534.23,1228.22c39.76-99.54-8.87-212.86-108.4-252.62l-15.47-6.18,36.86-92.27-80-32-27.52,12.32-28.83,72.16-54.7-21.85L1293,815.55l-80-32-27.52,12.32L1164.69,848l-83.31-33.28L1053.86,827l-43.7,109.38,72.65,29L933.5,1339.16l-53.16-21.23-27.52,12.32-43.69,109.38,102.8,41.07-28.83,72.16,80,32,27.52-12.32,20.79-52.06,54.7,21.86-28.83,72.16,80,32,27.51-12.32,20.8-52.06,15.47,6.18c99.53,39.77,212.86-8.86,252.63-108.4a193.67,193.67,0,0,0-1.06-146.3A193.63,193.63,0,0,0,1534.23,1228.22Zm-309.44,250.62L1034.85,1403l56.81-142.22,189.94,75.88.39.13a76.59,76.59,0,0,1-57.2,142.09Zm100.89-251.47c-.13,0-.24-.12-.36-.17l-190-75.88,56.82-142.22L1382.13,1085a76.59,76.59,0,0,1-56.45,142.39Z"/><path class="cls-11" d="M1561.75,1215.9c39.76-99.54-8.87-212.86-108.4-252.62l-35-14,28.83-72.16-80-32-28.83,72.16-74.19-29.64L1293,815.55l-80-32-28.83,72.16-102.8-41.07-43.69,109.39,72.64,29L953,1347l-72.64-29-43.69,109.38,102.79,41.07-28.82,72.16,80,32,28.83-72.16,74.18,29.64-28.83,72.16,80,32,28.82-72.16,35,14c99.53,39.76,212.86-8.87,252.63-108.4a193.67,193.67,0,0,0-1.06-146.3A193.68,193.68,0,0,0,1561.75,1215.9Zm-309.44,250.62-189.94-75.88,56.81-142.22,190,75.88.38.13a76.59,76.59,0,0,1-57.2,142.09Zm100.89-251.47-.36-.17L1162.89,1139l56.82-142.22,189.94,75.88a76.59,76.59,0,0,1-56.45,142.39Z"/><path class="cls-6" d="M453.54,1601.5c-1.56-42.12,6.24-112.34,6.24-112.34s12.42-38.72,62.56-112c55.89-81.64,163.53-231.4,166.19-236.71l.06-.13c53.75-11.86,102.36-31.88,102.36-31.88,1.23-.41,2.45-.85,3.67-1.29,1.6-.58,3.19-1.16,4.75-1.76,50.91-19.32,93.59-55.64,122-102.1l40.16-65.7,12-19.64a141.45,141.45,0,0,0,16.24-109.58,317,317,0,0,0-32.88-78.85L779,805.84c-46.26,30.78-190,53-190,53-118.08,20.77-147.18,68.57-147.18,68.57l-212.56,250.5C114.75,1282.61,20,1503.25,20,1503.25c-56.56,133,24.94,257.07,24.94,257.07C55,1782,96,1940.66,96,1940.66c-.18,22.65,21.48,147.65,29.47,192.93a256.13,256.13,0,0,0,7,29.2c7.69,25.65,16.36,63.4,31.72,94.67l293.66-584.89C456.76,1673.47,453.59,1602.87,453.54,1601.5Z"/><path class="cls-6" d="M1442.13,648.63s-47.77,83.48,46.62,175.57a77.86,77.86,0,0,0,8.17,8c38.84,33.86,96.72,33.93,136.07.67l190.23-160.76a88.39,88.39,0,0,0,30.39-81.29,72.22,72.22,0,0,0-1.49-7.1c-6.36-24-14.18-42.23-31-67.19s-40.15-29-93.34-28.47-65.64,16.84-101,34.76C1561.09,556.13,1459.11,612.37,1442.13,648.63Z"/><path class="cls-6" d="M1761.4,873a121.53,121.53,0,0,0-31.93,19.7l-115.36,97.89s-45.85,37.54-26.68,100.14c0,0,11.45,79.62,88.3,133.73,14.81,10.42,32.09,16.88,50,17.72a79.15,79.15,0,0,0,34.43-5.79c24.35-10.17,47.22-23.61,65.79-42.53L1972.07,1045s7.47-118.09-80.38-174C1891.69,871,1839.27,840.6,1761.4,873Z"/><path class="cls-6" d="M2071.55,1472.38h0c.06,3.16-1.4,6.66-4.14,9.94l-135.76,162.57c-10.69,13.77-30.14,30-40.44,39.82-36.37,34.55-91.49,52.77-133,44.92-128.88-24.39-146.17-91.44-150-128.34a89.49,89.49,0,0,1,.09-14.15c2-28.69,18.79-60,46.6-87.73l82.09-82c7.22-7.57,17-16.07,26.71-21.77l33.23-18.4c62.42-31.06,170.73-65.84,242.06,17.21C2039,1394.47,2069.49,1424.65,2071.55,1472.38Z"/></g></g></svg>