<svg xmlns="http://www.w3.org/2000/svg" xmlns:xlink="http://www.w3.org/1999/xlink" viewBox="0 0 4006.64 4442.28"><defs><style>.cls-1{fill:none;}.cls-2{isolation:isolate;}.cls-3{fill:#c2d6d6;}.cls-4{fill:#542a1b;}.cls-5{clip-path:url(#clip-path);}.cls-6{opacity:0.4;}.cls-7{fill:#c67566;opacity:0.3;}.cls-8{fill:#773e2f;}.cls-9{clip-path:url(#clip-path-2);}.cls-10{fill:#4c2512;}.cls-11{fill:#131506;}.cls-12{fill:#414042;opacity:0.6;}.cls-13{fill:#54722e;}.cls-14{fill:#7aaa43;}.cls-15{fill:#92c64f;}.cls-16{fill:#2b3a17;}.cls-17{fill:#bcbec0;}.cls-18{fill:#e6e7e8;}.cls-19{fill:#fff;}.cls-20{fill:#f2d02a;}.cls-21{fill:#f7941e;}.cls-22{fill:#5ec9ea;}.cls-23{fill:#43a0c9;}.cls-24{fill:#f9edde;}.cls-25{fill:#e5d6c6;}.cls-26{fill:#fcf6f0;}.cls-27{fill:#d89e39;}.cls-28{fill:#efb748;}.cls-29{fill:#eeb848;}.cls-30{fill:#935635;}.cls-31{fill:#703c25;}.cls-32{font-size:141.8px;}.cls-32,.cls-33{font-family:MicrosoftJhengHeiRegular, Microsoft JhengHei;}.cls-33{font-size:139px;}.cls-34{fill:#202b33;}.cls-35{fill:#586b7d;}.cls-36{fill:#a0d4ec;}.cls-37{fill:#3e5873;}.cls-38{fill:#00dbab;}.cls-39{fill:#fcb237;}.cls-40{fill:#638cb5;}.cls-41{fill:#0f0b08;opacity:0.15;}.cls-42{fill:#151d21;}.cls-43{fill:#c93d4b;}.cls-44{fill:#241c29;}.cls-45{fill:#d1d1d1;}.cls-46{fill:#ffb17d;}.cls-47{fill:#ff9d5c;}.cls-48{fill:#e07b48;}.cls-49{fill:#f57454;}.cls-50{fill:#f88670;}.cls-51{fill:#ff4d60;}.cls-52{fill:#a22d36;}.cls-53{fill:#fefefc;}.cls-54{fill:#c93646;}.cls-55{fill:#422014;}.cls-56{fill:#3d3938;}.cls-57{fill:#6dae44;}.cls-58{fill:#faab18;}.cls-59{fill:#353231;}.cls-60{fill:#d0ab73;}.cls-61{fill:#fdfceb;}.cls-62{fill:#523510;}.cls-63{fill:#e6e6e6;}.cls-64{fill:url(#radial-gradient);}.cls-65{stroke:#ccc;stroke-miterlimit:10;stroke-width:1.6px;fill:url(#radial-gradient-2);}.cls-66{fill:#688977;}.cls-67{fill:#ffc64a;}.cls-68{fill:#e8a620;}.cls-69{fill:#d3e5d8;}.cls-70{fill:#ffddc1;}.cls-71{mix-blend-mode:multiply;}.cls-72{fill:#f1f2f2;}.cls-73{fill:#297770;}.cls-74{fill:#d1d3d4;}.cls-75{fill:#54667a;}.cls-76{fill:#fee2ca;}.cls-77{fill:#c3977a;}.cls-78{fill:#e0bfb1;}.cls-79{fill:#f9e6d7;}.cls-80{fill:#758595;}.cls-81{fill:#e8af2e;}.cls-82{fill:#f9ca35;}.cls-83{fill:#c38728;}</style><clipPath id="clip-path"><path class="cls-1" d="M2838.51,3519.65s-40.91-7-44.91-19.32-1.6-157.68,0-173.14,11-25.77,16.44-28.19,279.35-3,279.35-3l54.42,9.55Z"/></clipPath><clipPath id="clip-path-2"><path class="cls-1" d="M3143.81,3305.55s11.6,4.64,11.6,10.82,0,177-5.8,182.41-22,7-29.76,7-269.75,18.55-281.34,13.91c-9.43-3.77-5.81-141-.78-192.28,1.16-11.76,16.94-16.66,17.95-16.92C2870.2,3306.76,3125.26,3300.91,3143.81,3305.55Z"/></clipPath><radialGradient id="radial-gradient" cx="1765.92" cy="468.6" r="178.57" gradientUnits="userSpaceOnUse"><stop offset="0.19" stop-color="#fff"/><stop offset="0.4" stop-color="#fafafa"/><stop offset="0.66" stop-color="#ececeb"/><stop offset="0.94" stop-color="#d4d4d3"/><stop offset="1" stop-color="#cececd"/></radialGradient><radialGradient id="radial-gradient-2" cx="1764.42" cy="397.22" fy="339.50835308996915" r="131.07" gradientTransform="translate(2096.69 -1373.89) rotate(87.56)" gradientUnits="userSpaceOnUse"><stop offset="0" stop-color="#fff"/><stop offset="1" stop-color="#cececd"/></radialGradient></defs><title>Asset 11</title><g class="cls-2"><g id="Layer_2" data-name="Layer 2"><g id="Layer_1-2" data-name="Layer 1"><text></text><circle class="cls-3" cx="3052.17" cy="3358.55" r="410.3"/><path class="cls-4" d="M2838.51,3519.65s-40.91-7-44.91-19.32-1.6-157.68,0-173.14,11-25.77,16.44-28.19,279.35-3,279.35-3l54.42,9.55Z"/><g class="cls-5"><g class="cls-6"><rect class="cls-7" x="3007.7" y="3141.82" width="3.36" height="405.56" transform="translate(7502.32 3581.65) rotate(135)"/><rect class="cls-7" x="2983.83" y="3165.69" width="3.36" height="405.56" transform="translate(7478.46 3639.25) rotate(135)"/><rect class="cls-7" x="2971.9" y="3177.62" width="3.36" height="405.56" transform="translate(7466.52 3668.07) rotate(135)"/><rect class="cls-7" x="3031.56" y="3117.96" width="3.36" height="405.56" transform="translate(7526.19 3524.03) rotate(135)"/><rect class="cls-7" x="3019.63" y="3129.89" width="3.36" height="405.56" transform="translate(7514.26 3552.83) rotate(135)"/><rect class="cls-7" x="2995.76" y="3153.76" width="3.36" height="405.56" transform="translate(7490.39 3610.46) rotate(135)"/><rect class="cls-7" x="3079.3" y="3070.23" width="3.36" height="405.56" transform="translate(7573.92 3408.79) rotate(135)"/><rect class="cls-7" x="3055.43" y="3094.09" width="3.36" height="405.56" transform="translate(7550.05 3466.41) rotate(135)"/><rect class="cls-7" x="3043.5" y="3106.02" width="3.36" height="405.56" transform="translate(7538.12 3495.22) rotate(135)"/><rect class="cls-7" x="3103.16" y="3046.36" width="3.36" height="405.56" transform="translate(7597.79 3351.18) rotate(135)"/><rect class="cls-7" x="3091.23" y="3058.29" width="3.36" height="405.56" transform="translate(7585.86 3379.83) rotate(135)"/><rect class="cls-7" x="3067.36" y="3082.16" width="3.36" height="405.56" transform="translate(7561.99 3437.6) rotate(135)"/><rect class="cls-7" x="2864.5" y="3285.02" width="3.36" height="405.56" transform="translate(7359.13 3927.35) rotate(135)"/><rect class="cls-7" x="2840.63" y="3308.89" width="3.36" height="405.56" transform="translate(7335.24 3985.13) rotate(135)"/><rect class="cls-7" x="2828.7" y="3320.82" width="3.36" height="405.56" transform="translate(7323.33 4013.78) rotate(135)"/><rect class="cls-7" x="2888.37" y="3261.15" width="3.36" height="405.56" transform="translate(7382.99 3869.74) rotate(135)"/><rect class="cls-7" x="2876.43" y="3273.09" width="3.36" height="405.56" transform="translate(7371.06 3898.55) rotate(135)"/><rect class="cls-7" x="2852.57" y="3296.95" width="3.36" height="405.56" transform="translate(7347.21 3956) rotate(135)"/><rect class="cls-7" x="2936.1" y="3213.42" width="3.36" height="405.56" transform="translate(7430.72 3754.51) rotate(135)"/><rect class="cls-7" x="2912.23" y="3237.29" width="3.36" height="405.56" transform="translate(7406.86 3812.12) rotate(135)"/><rect class="cls-7" x="2900.3" y="3249.22" width="3.36" height="405.56" transform="translate(7394.92 3840.94) rotate(135)"/><rect class="cls-7" x="2959.97" y="3189.56" width="3.36" height="405.56" transform="translate(7454.59 3696.88) rotate(135)"/><rect class="cls-7" x="2948.03" y="3201.49" width="3.36" height="405.56" transform="translate(7442.66 3725.69) rotate(135)"/><rect class="cls-7" x="2924.17" y="3225.36" width="3.36" height="405.56" transform="translate(7418.79 3783.31) rotate(135)"/></g><g class="cls-6"><rect class="cls-7" x="2924.17" y="3141.82" width="3.36" height="405.56" transform="translate(3221.8 -1089.28) rotate(45)"/><rect class="cls-7" x="2948.03" y="3165.69" width="3.36" height="405.56" transform="translate(3245.82 -1099.16) rotate(45)"/><rect class="cls-7" x="2959.97" y="3177.62" width="3.36" height="405.56" transform="translate(3257.75 -1104.1) rotate(45)"/><rect class="cls-7" x="2900.3" y="3117.96" width="3.36" height="405.56" transform="translate(3198.24 -1079.38) rotate(45)"/><rect class="cls-7" x="2912.23" y="3129.89" width="3.36" height="405.56" transform="translate(3210.02 -1084.33) rotate(45)"/><rect class="cls-7" x="2936.1" y="3153.76" width="3.36" height="405.56" transform="translate(3233.88 -1094.22) rotate(45)"/><rect class="cls-7" x="2852.57" y="3070.23" width="3.36" height="405.56" transform="translate(3150.36 -1059.62) rotate(45)"/><rect class="cls-7" x="2876.43" y="3094.09" width="3.36" height="405.56" transform="translate(3174.22 -1069.5) rotate(45)"/><rect class="cls-7" x="2888.37" y="3106.02" width="3.36" height="405.56" transform="translate(3186.15 -1074.45) rotate(45)"/><rect class="cls-7" x="2828.7" y="3046.36" width="3.36" height="405.56" transform="translate(3126.49 -1049.73) rotate(45)"/><rect class="cls-7" x="2840.63" y="3058.29" width="3.36" height="405.56" transform="translate(3138.27 -1054.68) rotate(45)"/><rect class="cls-7" x="2864.5" y="3082.16" width="3.36" height="405.56" transform="translate(3162.29 -1064.56) rotate(45)"/><rect class="cls-7" x="3067.36" y="3285.02" width="3.36" height="405.56" transform="translate(3365.15 -1148.59) rotate(45)"/><rect class="cls-7" x="3091.23" y="3308.89" width="3.36" height="405.56" transform="translate(3389.02 -1158.47) rotate(45)"/><rect class="cls-7" x="3103.16" y="3320.82" width="3.36" height="405.56" transform="translate(3400.95 -1163.42) rotate(45)"/><rect class="cls-7" x="3043.5" y="3261.15" width="3.36" height="405.56" transform="translate(3341.28 -1138.7) rotate(45)"/><rect class="cls-7" x="3055.43" y="3273.09" width="3.36" height="405.56" transform="translate(3353.22 -1143.64) rotate(45)"/><rect class="cls-7" x="3079.3" y="3296.95" width="3.36" height="405.56" transform="translate(3377.08 -1153.53) rotate(45)"/><rect class="cls-7" x="2995.76" y="3213.42" width="3.36" height="405.56" transform="translate(3293.55 -1118.93) rotate(45)"/><rect class="cls-7" x="3019.63" y="3237.29" width="3.36" height="405.56" transform="translate(3317.43 -1128.82) rotate(45)"/><rect class="cls-7" x="3031.56" y="3249.22" width="3.36" height="405.56" transform="translate(3329.35 -1133.76) rotate(45)"/><rect class="cls-7" x="2971.9" y="3189.56" width="3.36" height="405.56" transform="translate(3269.69 -1109.04) rotate(45)"/><rect class="cls-7" x="2983.83" y="3201.49" width="3.36" height="405.56" transform="translate(3281.79 -1113.98) rotate(45)"/><rect class="cls-7" x="3007.7" y="3225.36" width="3.36" height="405.56" transform="translate(3305.32 -1123.88) rotate(45)"/></g></g><path class="cls-8" d="M3143.81,3305.55s11.6,4.64,11.6,10.82,0,177-5.8,182.41-22,7-29.76,7-269.75,18.55-281.34,13.91c-9.43-3.77-5.81-141-.78-192.28,1.16-11.76,16.94-16.66,17.95-16.92C2870.2,3306.76,3125.26,3300.91,3143.81,3305.55Z"/><g class="cls-9"><rect class="cls-7" x="3034.11" y="3173.04" width="3.36" height="405.56" transform="translate(7569.48 3616.27) rotate(135)"/><rect class="cls-7" x="3010.24" y="3196.9" width="3.36" height="405.56" transform="translate(7545.62 3673.87) rotate(135)"/><rect class="cls-7" x="2998.31" y="3208.84" width="3.36" height="405.56" transform="translate(7533.69 3702.52) rotate(135)"/><rect class="cls-7" x="3057.98" y="3149.17" width="3.36" height="405.56" transform="translate(7593.35 3558.64) rotate(135)"/><rect class="cls-7" x="3046.04" y="3161.1" width="3.36" height="405.56" transform="translate(7581.42 3587.44) rotate(135)"/><rect class="cls-7" x="3022.18" y="3184.97" width="3.36" height="405.56" transform="translate(7557.55 3645.06) rotate(135)"/><rect class="cls-7" x="3105.71" y="3101.44" width="3.36" height="405.56" transform="translate(7641.08 3443.4) rotate(135)"/><rect class="cls-7" x="3081.84" y="3125.3" width="3.36" height="405.56" transform="translate(7617.22 3501.02) rotate(135)"/><rect class="cls-7" x="3069.91" y="3137.24" width="3.36" height="405.56" transform="translate(7605.28 3530) rotate(135)"/><rect class="cls-7" x="3129.57" y="3077.57" width="3.36" height="405.56" transform="translate(7664.95 3385.78) rotate(135)"/><rect class="cls-7" x="3117.64" y="3089.51" width="3.36" height="405.56" transform="translate(7653.01 3414.58) rotate(135)"/><rect class="cls-7" x="3093.78" y="3113.37" width="3.36" height="405.56" transform="translate(7629.15 3472.21) rotate(135)"/><rect class="cls-7" x="2890.91" y="3316.23" width="3.36" height="405.56" transform="translate(7426.29 3961.95) rotate(135)"/><rect class="cls-7" x="2867.05" y="3340.1" width="3.36" height="405.56" transform="translate(7402.42 4019.58) rotate(135)"/><rect class="cls-7" x="2855.11" y="3352.03" width="3.36" height="405.56" transform="translate(7390.49 4048.39) rotate(135)"/><rect class="cls-7" x="2914.78" y="3292.37" width="3.36" height="405.56" transform="translate(7450.17 3904.18) rotate(135)"/><rect class="cls-7" x="2902.85" y="3304.3" width="3.36" height="405.56" transform="translate(7438.2 3933.31) rotate(135)"/><rect class="cls-7" x="2878.98" y="3328.17" width="3.36" height="405.56" transform="translate(7414.35 3990.77) rotate(135)"/><rect class="cls-7" x="2962.51" y="3244.63" width="3.36" height="405.56" transform="translate(7497.88 3789.11) rotate(135)"/><rect class="cls-7" x="2938.65" y="3268.5" width="3.36" height="405.56" transform="translate(7474.02 3846.72) rotate(135)"/><rect class="cls-7" x="2926.71" y="3280.43" width="3.36" height="405.56" transform="translate(7462.09 3875.52) rotate(135)"/><rect class="cls-7" x="2986.38" y="3220.77" width="3.36" height="405.56" transform="translate(7521.74 3731.65) rotate(135)"/><rect class="cls-7" x="2974.45" y="3232.7" width="3.36" height="405.56" transform="translate(7509.82 3760.3) rotate(135)"/><rect class="cls-7" x="2950.58" y="3256.57" width="3.36" height="405.56" transform="translate(7485.95 3817.92) rotate(135)"/><rect class="cls-7" x="2950.58" y="3173.04" width="3.36" height="405.56" transform="translate(3251.76 -1098.81) rotate(45)"/><rect class="cls-7" x="2974.45" y="3196.9" width="3.36" height="405.56" transform="translate(3275.63 -1108.69) rotate(45)"/><rect class="cls-7" x="2986.38" y="3208.84" width="3.36" height="405.56" transform="translate(3287.4 -1113.65) rotate(45)"/><rect class="cls-7" x="2926.71" y="3149.17" width="3.36" height="405.56" transform="translate(3227.9 -1088.92) rotate(45)"/><rect class="cls-7" x="2938.65" y="3161.1" width="3.36" height="405.56" transform="translate(3239.83 -1093.87) rotate(45)"/><rect class="cls-7" x="2962.51" y="3184.97" width="3.36" height="405.56" transform="translate(3263.85 -1103.74) rotate(45)"/><rect class="cls-7" x="2878.98" y="3101.44" width="3.36" height="405.56" transform="translate(3180.16 -1069.15) rotate(45)"/><rect class="cls-7" x="2902.85" y="3125.3" width="3.36" height="405.56" transform="translate(3203.87 -1079.05) rotate(45)"/><rect class="cls-7" x="2914.78" y="3137.24" width="3.36" height="405.56" transform="translate(3215.96 -1083.98) rotate(45)"/><rect class="cls-7" x="2855.11" y="3077.57" width="3.36" height="405.56" transform="translate(3156.3 -1059.27) rotate(45)"/><rect class="cls-7" x="2867.05" y="3089.51" width="3.36" height="405.56" transform="translate(3168.23 -1064.21) rotate(45)"/><rect class="cls-7" x="2890.91" y="3113.37" width="3.36" height="405.56" transform="translate(3192.26 -1074.08) rotate(45)"/><rect class="cls-7" x="3093.78" y="3316.23" width="3.36" height="405.56" transform="translate(3394.96 -1158.12) rotate(45)"/><rect class="cls-7" x="3117.64" y="3340.1" width="3.36" height="405.56" transform="translate(3418.84 -1168.01) rotate(45)"/><rect class="cls-7" x="3129.57" y="3352.03" width="3.36" height="405.56" transform="translate(3430.92 -1172.94) rotate(45)"/><rect class="cls-7" x="3069.91" y="3292.37" width="3.36" height="405.56" transform="translate(3370.91 -1148.25) rotate(45)"/><rect class="cls-7" x="3081.84" y="3304.3" width="3.36" height="405.56" transform="translate(3383.02 -1153.18) rotate(45)"/><rect class="cls-7" x="3105.71" y="3328.17" width="3.36" height="405.56" transform="translate(3406.89 -1163.07) rotate(45)"/><rect class="cls-7" x="3022.18" y="3244.63" width="3.36" height="405.56" transform="translate(3323.36 -1128.47) rotate(45)"/><rect class="cls-7" x="3046.04" y="3268.5" width="3.36" height="405.56" transform="translate(3347.39 -1138.34) rotate(45)"/><rect class="cls-7" x="3057.98" y="3280.43" width="3.36" height="405.56" transform="translate(3359.16 -1143.29) rotate(45)"/><rect class="cls-7" x="2998.31" y="3220.77" width="3.36" height="405.56" transform="translate(3299.49 -1118.58) rotate(45)"/><rect class="cls-7" x="3010.24" y="3232.7" width="3.36" height="405.56" transform="translate(3311.43 -1123.52) rotate(45)"/><rect class="cls-7" x="3034.11" y="3256.57" width="3.36" height="405.56" transform="translate(3335.28 -1133.41) rotate(45)"/></g><polygon class="cls-10" points="3094.34 3302.08 3094.34 3509.6 3073.73 3511.66 3073.73 3304.11 3094.34 3302.08"/><polygon class="cls-10" points="2925.33 3304.65 2927.39 3520.4 2904.72 3520.4 2904.72 3303.6 2925.33 3304.65"/><path class="cls-11" d="M2957.82,3301.17c1.32-2.68.7-15.89.7-15.89s.35-4.89,4.57-5.54c5.51-.84,38.12-1.23,43.5-.19a6.71,6.71,0,0,1,5.18,6.76c0,2.94-2.3,12.55.17,15.18s17.1,1.66,17.47-1.79.78-20.78-.48-25-5.16-10-9.07-11.34c-10.51-3.58-66-2.52-69.33-.84s-10.07,9.43-10.49,12.79-1.27,18.19-1.27,22.92S2955.8,3305.24,2957.82,3301.17Z"/><path class="cls-12" d="M3008.86,3266.28c-16.84-.47-35-2.31-51.72.44-4,.66-10.21,1.54-12.76,5.28-3.42,5-1.78,15.05-2,20.76-.17,4.33,6.55,4.32,6.72,0,.24-6-1.76-15.22,4.34-18.37,4.62-2.38,12.23-1.79,17.31-1.85,12.7-.13,25.41.11,38.11.47C3013.19,3273.13,3013.19,3266.4,3008.86,3266.28Z"/><path class="cls-13" d="M3257.74,3529s45.46-17,50.05-26.95c15.13-32.63,9.24-222.59,1.68-238.51-7.28-15.32-20.08-29.51-28.95-31.45s-143.31-1.45-143.31-1.45L3112,3233.5Z"/><path class="cls-14" d="M3241.87,3238.28l-137.81-4.78s-15.13-.26-23.53,15.71-46.22,226-18.49,256.29,170.58,23.53,187.39,21,16.36-251.81,12.16-266.94S3250.2,3238.57,3241.87,3238.28Z"/><path class="cls-15" d="M3236.77,3247l-129.43-4.49s-14.2-.24-22.1,14.75-43.4,212.29-17.36,240.7,160.21,22.1,176,19.73,15.37-236.49,11.42-250.7S3244.6,3247.25,3236.77,3247Z"/><path class="cls-11" d="M3264,3512.23s-21.33,5-42.34,5-119.32-1.68-151.26-12.61-18.48,15.13-9.24,16.81,129.41,19.33,186.55,10.92c0,0,14.1-3.36,16.29-8.4S3264,3512.23,3264,3512.23Z"/><path class="cls-16" d="M3267.5,3233.5s19.26,9.29,23.11,26.07c14.84,64.77,0,250.14,0,250.14l-5.89,4.2s16.25-177.87-.8-252.1c-2-8.46-11-23.44-26.33-28.31Z"/><polygon class="cls-13" points="3234.87 3301.03 3086.97 3290.66 3084.17 3295.84 3234.87 3305.23 3234.87 3301.03"/><path class="cls-17" d="M3229.26,3298s2.52,8.4,0,9-16.52,1.4-16.52,0-4.48-10.36,0-10.64S3229.26,3298,3229.26,3298Z"/><path class="cls-18" d="M3221.7,3302s7.56,20.36,3.08,21.76-6.72,0-6.72,0l1.4-21.76Z"/><path class="cls-12" d="M3059.4,3506.35c14.33,7.2,30.87,7.84,46.57,9.16,16,1.35,32,2.31,48,3s32.06,1.18,48.1,1.53,33,2.08,48.72-2c4.19-1.09,5.91,5.41,1.72,6.5-15.34,4-31.5,2.62-47.18,2.29-18.25-.38-36.5-.89-54.73-1.75-17.68-.83-35.34-2-53-3.61-14.37-1.33-28.63-2.81-41.7-9.37C3052.09,3510.18,3055.54,3504.41,3059.4,3506.35Z"/><path class="cls-14" d="M3230.38,3373.7s-2.24,103-4.48,109.68-7.47,15.34-15.78,17-98.59,5.35-130.43-8.58c-9-3.92-10.62-20.17-11.74-26.33s3.77-92.44,8.94-105.88c2.8-7.28,10.08-11.2,16.8-11.2s124,7.28,124,7.28S3230.38,3360.13,3230.38,3373.7Z"/><path class="cls-15" d="M3224.65,3376.27s-2.13,97.82-4.26,104.21-7.1,14.57-15,16.13-93.68,5.09-123.94-8.15c-8.51-3.72-10.08-19.16-11.14-25s3.57-87.84,8.48-100.61c2.66-6.92,9.58-10.65,16-10.65s117.78,6.92,117.78,6.92S3224.65,3363.37,3224.65,3376.27Z"/><path class="cls-11" d="M3212.25,3231.28c-1.33-2.68-.7-15.89-.7-15.89s-.36-4.89-4.58-5.54c-5.51-.84-38.11-1.23-43.5-.19a6.71,6.71,0,0,0-5.18,6.76c0,2.94,2.3,12.55-.16,15.18s-17.11,1.66-17.48-1.79-.78-20.77.48-25,5.16-10,9.07-11.34c10.51-3.57,66-2.52,69.33-.84s10.07,9.43,10.49,12.79,1.27,18.19,1.27,22.92S3214.26,3235.35,3212.25,3231.28Z"/><path class="cls-12" d="M3161.2,3196.39c16.85-.47,35-2.31,51.72.44,4,.66,10.21,1.54,12.76,5.28,3.42,5,1.78,15,2,20.76.18,4.33-6.55,4.32-6.72,0-.24-6,1.76-15.22-4.34-18.37-4.61-2.37-12.23-1.79-17.3-1.84-12.71-.14-25.42.1-38.12.46C3156.87,3203.24,3156.87,3196.51,3161.2,3196.39Z"/><path class="cls-14" d="M3153.29,3371.67s-41.73,11.11-42.73,15.28-.66,20.13,1.42,22.21,49.64.14,49.29-11.9S3157.1,3370.63,3153.29,3371.67Z"/><path class="cls-19" d="M3154.51,3369.15s-41.73,11.1-42.73,15.27-.66,20.13,1.42,22.21,49.64.14,49.29-11.9S3158.32,3368.11,3154.51,3369.15Z"/><path class="cls-20" d="M3151,3372.94s-33.43,8.9-34.24,12.23-.53,16.14,1.14,17.81,39.78.11,39.5-9.54S3154.06,3372.1,3151,3372.94Z"/><path class="cls-21" d="M3144.44,3391.71c7.57,1.51,11.2,1.63,12.94,1.32,0,.14,0,.27,0,.41.28,9.65-37.83,11.21-39.5,9.54-1-1-1.46-5.65-1.56-10.07C3123.13,3391.35,3134.12,3389.64,3144.44,3391.71Z"/><path class="cls-14" d="M3188.1,3428.23s.79,29.94-3.38,32-49.46,4.16-50.24,0,3.38-27.34,6.76-28.38S3188.05,3424.84,3188.1,3428.23Z"/><path class="cls-19" d="M3187.74,3425.9s.78,29.94-3.38,32-49.47,4.16-50.25,0,3.39-27.34,6.77-28.38S3187.69,3422.51,3187.74,3425.9Z"/><path class="cls-22" d="M3184.22,3428.09s.67,26-2.94,27.81-43,3.62-43.64,0,2.93-23.74,5.87-24.64S3184.17,3425.15,3184.22,3428.09Z"/><path class="cls-23" d="M3137.63,3455.9a26.12,26.12,0,0,1,.35-6.18c8.43-3.67,17.18-7.68,20.84-10.08,8-5.26,13,6,16.69,5.78,1.68-.12,5.27-2.61,8.64-5.25-.25,7.06-1,14.78-2.87,15.73C3177.66,3457.71,3138.31,3459.52,3137.63,3455.9Z"/><path class="cls-24" d="M3117.53,3293c1.69-.62-27.23-89.79-33.36-97.63s-39.74,8.13-41,20.74S3092.4,3291,3092.4,3291,3110.82,3295.43,3117.53,3293Z"/><path class="cls-25" d="M3075.94,3206.84s-11.9-2.08-21.71,1.69l2.8,11.76S3077.75,3220,3075.94,3206.84Z"/><path class="cls-26" d="M3075.94,3206.84l37.27,86.89c-10.25-1-20.81-2.69-20.81-2.69s-50.49-62.35-49.23-74.95C3043.17,3216.09,3075.15,3220.33,3075.94,3206.84Z"/><path class="cls-27" d="M2833.27,3308.94s-145.71,93-120,120.5c19.62,21,294.69-156.36,278.51-185.07C2981.28,3225.77,2939.45,3239.05,2833.27,3308.94Z"/><path class="cls-28" d="M2833.61,3309.87s-128.39,82-105.76,106.17c17.29,18.49,259.66-137.77,245.41-163.06C2964,3236.59,2927.17,3248.3,2833.61,3309.87Z"/><path class="cls-27" d="M2772.45,3361.32c-13.34-16.71-21.81-96.43-10.27-110.61s69.28-60.1,85.72-60,58.79,60,69.35,72.37S2785.79,3378,2772.45,3361.32Z"/><path class="cls-29" d="M2776,3351.32c-11.3-14.15-18.48-81.7-8.7-93.71s58.69-50.92,72.62-50.81,49.8,50.79,58.75,61.32S2787.33,3365.48,2776,3351.32Z"/><path class="cls-30" d="M2839.09,3300.51c-27.11,18.27-62.52,35.91-74.63,41.78,2.31,8.51,5,15.32,8,19,13.34,16.71,155.37-85.78,144.8-98.21-2.42-2.85-6.53-8.2-11.61-14.76C2888.72,3262.76,2860.71,3285.93,2839.09,3300.51Z"/><path class="cls-27" d="M2882.48,3241.11a96.1,96.1,0,0,1-19.87,16.54c-2.12,1.33.33,4.37,2.43,3a99.24,99.24,0,0,0,20.59-17.3C2887.32,3241.55,2884.16,3239.26,2882.48,3241.11Z"/><path class="cls-27" d="M2814.2,3280.07a81.61,81.61,0,0,1-8,3.55c-2.35.9-.8,4.48,1.54,3.59a82.78,82.78,0,0,0,8-3.55C2818,3282.52,2816.44,3278.93,2814.2,3280.07Z"/><path class="cls-27" d="M2842.14,3248.15l-21.57,16.77c-2,1.54.45,4.59,2.44,3l21.57-16.77C2846.56,3249.66,2844.13,3246.61,2842.14,3248.15Z"/><path class="cls-27" d="M2862,3216.53a197.5,197.5,0,0,1-20.44,20.47c-1.89,1.64.54,4.7,2.44,3.05a203.8,203.8,0,0,0,21.15-21.23C2866.79,3216.92,2863.63,3214.63,2862,3216.53Z"/><path class="cls-27" d="M2801.69,3311.62l-5,3.14a2,2,0,0,0-.31,2.74,2,2,0,0,0,2.74.31l5-3.14a1.95,1.95,0,1,0-2.43-3.05Z"/><path class="cls-27" d="M2849.38,3273.89l-20.74,15.72c-2,1.52.44,4.57,2.44,3l20.73-15.72C2853.81,3275.42,2851.38,3272.37,2849.38,3273.89Z"/><path class="cls-27" d="M2797.24,3264.35q-7.44,5.54-14.89,11.06c-2,1.5.42,4.55,2.44,3.05l14.89-11.06C2801.69,3265.91,2799.26,3262.86,2797.24,3264.35Z"/><path class="cls-27" d="M2818.62,3236.93l-14.23,11.36c-2,1.57.47,4.62,2.43,3.05l14.23-11.36C2823,3238.42,2820.58,3235.36,2818.62,3236.93Z"/><path class="cls-27" d="M2764,3392a79.24,79.24,0,0,1-12,2.12c-2.51.24-1.93,4.1.56,3.86a79.24,79.24,0,0,0,12-2.12C2766.92,3395.26,2766.38,3391.39,2764,3392Z"/><path class="cls-27" d="M2778.42,3376.53c-3,.89-5.87,1.88-8.76,3-2.35.91-.8,4.49,1.54,3.59,2.88-1.11,5.8-2.1,8.76-3C2782.36,3379.4,2780.8,3375.82,2778.42,3376.53Z"/><path class="cls-27" d="M2933.37,3261.33q-1.32,3.55-2.65,7.11c-.87,2.35,2.76,3.76,3.64,1.4s1.77-4.74,2.65-7.11S2934.25,3259,2933.37,3261.33Z"/><path class="cls-31" d="M2770.72,3339.22l-6.26,3.07c2.31,8.51,5,15.32,8,19,1.54,1.93,4.82,2.26,9.36,1.33C2776.68,3354.91,2772.92,3345.53,2770.72,3339.22Z"/><path class="cls-31" d="M2905.64,3248.35c-3.94,3.36-8.49,7.19-13.41,11.28,5.19,6.62,12.28,17.33,14.56,20.82,8.32-8.38,12.64-14.78,10.46-17.34C2914.83,3260.26,2910.72,3254.91,2905.64,3248.35Z"/><text class="cls-32" transform="translate(2910.37 3963.52)">旅行</text><text class="cls-33" transform="translate(238.42 4031.33)">網路媒體</text><circle class="cls-3" cx="516.42" cy="3419.47" r="410.3"/><rect class="cls-34" x="229.72" y="3278.38" width="614.96" height="385.17" rx="15.6" ry="15.6"/><rect class="cls-35" x="270.86" y="3278.38" width="528.36" height="385.17"/><rect class="cls-36" x="270.86" y="3278.38" width="528.36" height="37.51"/><rect class="cls-19" x="286.98" y="3294.91" width="7.95" height="11.05"/><rect class="cls-19" x="299.13" y="3289.6" width="7.95" height="16.35"/><rect class="cls-19" x="311.28" y="3284.3" width="7.95" height="21.65"/><rect class="cls-37" x="270.86" y="3615.65" width="528.36" height="47.89"/><circle class="cls-19" cx="350.95" cy="3639.21" r="17.62" transform="translate(-2470.52 1314.06) rotate(-45)"/><path class="cls-38" d="M359.86,3635.68a4,4,0,0,1,0,7.05l-5.21,2.9-5.52,3.08a4,4,0,0,1-6-3.52v-12a4,4,0,0,1,6-3.52l5.52,3.08Z"/><path class="cls-19" d="M395.62,3639.21a12.22,12.22,0,1,0-12.21,12.21A12.22,12.22,0,0,0,395.62,3639.21Z"/><path class="cls-39" d="M391.05,3637.62a1.82,1.82,0,0,1,0,3.17l-2.35,1.31-2.48,1.39a1.82,1.82,0,0,1-2.71-1.59v-5.39a1.83,1.83,0,0,1,2.71-1.59l2.48,1.39Z"/><path class="cls-39" d="M384.56,3637.62a1.82,1.82,0,0,1,0,3.17l-2.35,1.31-2.49,1.39a1.82,1.82,0,0,1-2.7-1.59v-5.39a1.82,1.82,0,0,1,2.7-1.59l2.49,1.39Z"/><path class="cls-40" d="M780.89,3635.8H436a3.62,3.62,0,0,0-3.62,3.62h0A3.62,3.62,0,0,0,436,3643H780.89A3.07,3.07,0,0,0,784,3640v-1.1A3.06,3.06,0,0,0,780.89,3635.8Z"/><path class="cls-41" d="M356.86,3663.87c-4.72-80.29-73.56-122.09-73.56-122.09,62.29-60.35,22.72-131.34,0-120.44-14.25,6.84-40.68,24.91-63.76,92.1-10.33,30,15.76,100.31,37.62,150.43Z"/><path class="cls-19" d="M444.77,3639.21a11.07,11.07,0,1,0-11.07,11.06A11.07,11.07,0,0,0,444.77,3639.21Z"/><circle class="cls-42" cx="823.05" cy="3471.02" r="15.16"/><path class="cls-43" d="M650.09,3431.3c-79,39-150.25,44.41-232.84,14.44-7-49.17-8.74-92.26-3.36-135.2s18.25-86.35,46-118.92,72.74-52,113.26-40.1c33,9.73,58.28,38.53,71.65,71s16.27,68.39,16.61,103.62S661.44,3396.57,650.09,3431.3Z"/><path class="cls-44" d="M655.36,3615.7q-40.62.18-81.14,0-31.29,0-62.49,0-51.8-.12-103.64,0c7.34-42.11,15.49-95.45,38.39-131.55a137.39,137.39,0,0,1,40.75-41.47c19.73-12.8,42.67-19.65,65.85-16.41,15.16,2.13,29.12,8.39,41.35,17.37,19,14,33.93,34.57,42.92,56.63C652.15,3536.53,653.83,3576.6,655.36,3615.7Z"/><path class="cls-45" d="M594.43,3443.64c-6.45,56.75-13.91,115.79-20.21,172.1q-31.29,0-62.49,0a975.91,975.91,0,0,0-24.5-173c19.73-12.8,42.67-19.65,65.85-16.41C568.24,3428.4,582.2,3434.66,594.43,3443.64Z"/><path class="cls-46" d="M556.1,3431.6c-.08,4.42-.14,6.54,0,11-12.92,8.59-29,7.39-42.09-1q0-5.58-.1-11.13l0-5.86q0-7.39-.13-14.77c14.62,1.81,28.31-1,42.65-4.39.18,6.53,0,13.06-.12,19.59C556.19,3427.23,556.14,3429.42,556.1,3431.6Z"/><path class="cls-47" d="M556.23,3425.05a36.53,36.53,0,0,1-5.78,2.69c-10.86,3.93-26.33,3.53-36.62-3.12q0-7.39-.13-14.77c14.62,1.81,28.31-1,42.65-4.39C556.53,3412,556.38,3418.52,556.23,3425.05Z"/><path class="cls-48" d="M665.84,3280.29c-.52,6.39-4.42,12.58-10.3,15.11s-13.51.83-17.18-4.42c-2.6-3.71-3-8.55-2.54-13.05.66-6,3.07-12.17,7.91-15.82C656.56,3252.44,666.81,3268.45,665.84,3280.29Z"/><path class="cls-46" d="M643.72,3249.22c-2.91-42.51-16.83-80.09-55.32-101.9-31.17-17.66-71-22.24-105.07-10.48-78.89,27.26-94.77,109.22-72.36,181.59,15,48.55,50.53,86.29,100.87,97.86,60.17,13.84,103.57-33.9,121.37-86.34A209.38,209.38,0,0,0,643.72,3249.22Z"/><path class="cls-49" d="M541,3324.22c0-8.28.21-16.61-1.14-24.8-1-5.72-10.63-5.73-11.57,0-1.35,8.19-1.12,16.52-1.14,24.8s-1.11,16.89,1.28,24.76a5.91,5.91,0,0,0,11.29,0C542.1,3341.11,541,3332.38,541,3324.22Z"/><path class="cls-50" d="M537.65,3332c-.28-2.79-4.56-3.9-5.27-.72a48.53,48.53,0,0,0-.71,6.81c-.18,2.28-.57,4.56,0,6.8.7,2.76,4.29,2.32,5.18,0,.75-2,.61-4.2.69-6.3A48.33,48.33,0,0,0,537.65,3332Z"/><path class="cls-51" d="M574.5,3106.37c-16.23-14.6-37.11-19.75-58.62-15.35-20.69,4.23-39.15,15.51-57.12,26.6-23.36,14.4-48.08,30.35-58.82,55.61-7.19,16.9-7.11,35.89-6.92,54.26.39,38.08,3,76,2.9,114.14-.08,31.44-5.41,66.64,13.26,94.39a67.91,67.91,0,0,0,31.7,25c3.34,1.3,38.67,7.71,38.64,7.63-28.81-79.63-38-165.15-35.32-249.79,23.38,1.75,48.59-7.79,65.88-23.62-7.19,11.66,4.71,11.84,9.64,10.79,13.67-2.9,21.8-10,30.32-16,2.77-2,28.46-21.22,27-23.76,51,87.38,62.17,199,21.59,291.68,37.35-.94,58.67-7.35,69.45-45.59,9.19-32.6,5.08-67.52,3.3-100.8-3.06-57.23-11.64-114.23-26.63-169.57-3.31-12.22-7.07-24.57-14.28-35C609.3,3076.46,600,3096.58,574.5,3106.37Z"/><path class="cls-52" d="M557.26,3380.94a26.16,26.16,0,0,1-9.4,12.62q-.4.3-.84.57a25.76,25.76,0,0,1-25.32,1.33l-.47-.26a22.29,22.29,0,0,1-10.14-12.4,30.41,30.41,0,0,1-1.72-8.85q24.57-2.1,49.26-2.43A24.15,24.15,0,0,1,557.26,3380.94Z"/><path class="cls-53" d="M557.26,3380.94l-46.17,1.86a30.41,30.41,0,0,1-1.72-8.85q24.57-2.1,49.26-2.43A24.15,24.15,0,0,1,557.26,3380.94Z"/><path class="cls-54" d="M547.86,3393.56q-.4.3-.84.57a25.76,25.76,0,0,1-25.32,1.33l-.47-.26a19.41,19.41,0,0,1,26.63-1.64Z"/><path class="cls-55" d="M503.23,3293.55c-.44-3.73-1.51-18.19-8.87-12-3.52,2.94-2.11,10.46-1.21,14.32a5.22,5.22,0,0,0,6.18,3.9C502.29,3299.06,503.56,3296.34,503.23,3293.55Z"/><path class="cls-55" d="M560.33,3293.55c.44-3.73,1.51-18.19,8.87-12,3.52,2.94,2.12,10.46,1.22,14.32a5.23,5.23,0,0,1-6.19,3.9C561.27,3299.06,560,3296.34,560.33,3293.55Z"/><path class="cls-44" d="M509.4,3388.78c-5.17-2.83-10.32-2-15.88-1.13a5,5,0,0,0-3.83,2.51,4.83,4.83,0,0,0-1.74,2.27,11.26,11.26,0,0,0-.56,2.7c-27.22,1.09-46.26-2.91-56.62-31.14-7.52-20.5-8.36-41.91-9.71-63.44-.12-1.86-3.17-2.53-3.45-.46-3.35,24.35-.17,57.94,12.27,79.65,12.59,22,35,24.62,58.5,25a4.7,4.7,0,0,0,1.49-.23,9.36,9.36,0,0,0,1.64,1.79c4.71,3.82,12.12,2.68,17.73,2.2,3.21-.27,5-2.28,5.41-5.41C515.24,3397.93,514.44,3391.54,509.4,3388.78Z"/><path class="cls-46" d="M423.18,3305.27l-1.72-26.75c-6.22-1.43-14.81,1.5-18.23,6.88a16,16,0,0,0,.93,17.93C408.1,3308.34,417.14,3307.34,423.18,3305.27Z"/><path class="cls-46" d="M639.83,3303q-1.38-13.34-2.78-26.67c5.89-2.45,14.85-1,19.12,3.74a15.92,15.92,0,0,1,2.09,17.82C655.21,3303.45,646.13,3304,639.83,3303Z"/><path class="cls-19" d="M753,3123.19c-.6-23.76,9.75-45.5,30.79-60.84,22.95-16.72,52.58-21.88,80.95-20.83,22.51.83,45.85,5.72,63.3,20,27.57,22.52,39.57,67.68,21.64,99.16-23.69,41.6-73.35,33.48-113.88,35.38-13.25,19-39.5,28.07-61.58,20.79a59.52,59.52,0,0,0,29.49-23.68c-2.78,4.33-29-14.2-31.54-16.75-10.38-10.22-13.48-21.88-16.79-35.52A83.94,83.94,0,0,1,753,3123.19Z"/></g><g id="Layer_2-2" data-name="Layer 2"><text class="cls-33" transform="translate(132.3 2488.54)">音樂產業</text><circle class="cls-3" cx="410.3" cy="1890.26" r="410.3"/><path class="cls-56" d="M172.36,1981.51a89.73,89.73,0,0,1-104.53-71.72l-6.53-35,11-2.06,6.53,35A78.41,78.41,0,1,0,233,1879l-6.52-35,11-2.06,6.52,35A89.74,89.74,0,0,1,172.36,1981.51Z"/><path class="cls-56" d="M205.37,1783.32c-.19-1.84-.44-3.69-.78-5.54a69.12,69.12,0,1,0-135.9,25.31c.34,1.85.78,3.67,1.27,5.47l5.65,30.36L211,1813.71Z"/><rect class="cls-57" x="76.4" y="1826.13" width="137.74" height="21.39" transform="translate(-333.77 57.63) rotate(-10.55)"/><path class="cls-56" d="M214.94,1834.74,79.53,1860l7.36,39.57c.2,1.85.44,3.7.79,5.56a69.12,69.12,0,1,0,135.9-25.31c-.35-1.85-.78-3.66-1.27-5.45Z"/><rect class="cls-58" x="61.21" y="1858.23" width="179.28" height="15.51" transform="translate(-339.01 59.14) rotate(-10.55)"/><rect class="cls-59" x="163.28" y="1970.89" width="28.38" height="81.35" transform="translate(-365.21 66.47) rotate(-10.55)"/><path class="cls-56" d="M282,2036.58c-8.93-11.89-51.28-13.84-100.69-4.64S93.05,2058.2,89,2072.51a2.41,2.41,0,0,0,2.76,3l188.72-35.14a2.4,2.4,0,0,0,1.48-3.81Z"/><path class="cls-59" d="M704.48,1881.75c-8.41-6.82-17.1-17.15-16.14-21.07l4.1-16.66a4.18,4.18,0,1,0-8.11-2L663,1928.8a28.85,28.85,0,0,0-14.55-8.44c-13.14-3.23-25.83,2.4-28.34,12.59s6.11,21.07,19.25,24.31,25.83-2.4,28.34-12.59l17.46-70.93a85.16,85.16,0,0,0,14.09,14.51,4.18,4.18,0,0,0,5.27-6.5Z"/><path class="cls-57" d="M800,1931.81a5.28,5.28,0,0,0-3.87-6.4l-86.32-21.26a5.3,5.3,0,0,0-6.4,3.88l-28.22,114.6a36.37,36.37,0,0,0-18.57-10.84c-16.65-4.1-32.73,3-35.91,15.94s7.75,26.7,24.4,30.8,32.72-3,35.9-16c.16-.64.9-2.93,1-3.51l25.27-102.63,76,18.72L769,2013.34a36.47,36.47,0,0,0-18.52-10.78c-16.65-4.1-32.73,3-35.9,16s7.74,26.69,24.39,30.79c16.14,4,31.74-2.61,35.57-14.77a5.16,5.16,0,0,0,.44-1.15Z"/><path class="cls-59" d="M545.41,2040H456.23v-13.19h89.18c52.08,0,76.9-93.07,77.14-94l12.76,3.32C634.21,1940.31,607.57,2040,545.41,2040Z"/><rect class="cls-59" x="414.22" y="2011.07" width="84.04" height="44.56" rx="19.1" ry="19.1"/><rect class="cls-59" x="236.28" y="1825.16" width="32.97" height="32.97" rx="12.68" ry="12.68"/><path class="cls-56" d="M185.88,1918.16a73.24,73.24,0,0,0,72.54,73.22V1844.94A73.24,73.24,0,0,0,185.88,1918.16Z"/><path class="cls-57" d="M286.26,1984.21a15.57,15.57,0,0,1-15.57,15.57h0a15.57,15.57,0,0,1-15.57-15.57V1852.12a15.56,15.56,0,0,1,15.57-15.57h0a15.56,15.56,0,0,1,15.57,15.57Z"/><path class="cls-59" d="M579,1838.57h-17c0-82.07-67.47-148.83-150.4-148.83s-150.41,66.76-150.41,148.83h-17c0-91.42,75.08-165.79,167.36-165.79S579,1747.15,579,1838.57Z"/><path class="cls-59" d="M554,1845.44a12.69,12.69,0,0,0,12.68,12.69h7.6a12.68,12.68,0,0,0,12.68-12.69v-7.6a12.67,12.67,0,0,0-12.68-12.68h-7.6A12.68,12.68,0,0,0,554,1837.84Z"/><path class="cls-56" d="M637.31,1918.16a73.23,73.23,0,0,1-72.53,73.22V1844.94A73.23,73.23,0,0,1,637.31,1918.16Z"/><path class="cls-57" d="M536.93,1984.21a15.58,15.58,0,0,0,15.58,15.57h0a15.58,15.58,0,0,0,15.57-15.57V1852.12a15.57,15.57,0,0,0-15.57-15.57h0a15.57,15.57,0,0,0-15.58,15.57Z"/><path class="cls-59" d="M303.42,1744.12a20.72,20.72,0,0,1-14.05-36,180.77,180.77,0,0,1,244.55,0,20.72,20.72,0,1,1-28.09,30.47,139.33,139.33,0,0,0-188.37,0A20.65,20.65,0,0,1,303.42,1744.12Z"/><circle class="cls-3" cx="1765.14" cy="410.3" r="410.3"/><circle class="cls-60" cx="1765.17" cy="406.99" r="268" transform="translate(229.22 1367.37) rotate(-45)"/><circle class="cls-61" cx="1765.17" cy="406.99" r="183.86" transform="translate(229.22 1367.37) rotate(-45)"/><circle class="cls-62" cx="1765.17" cy="406.99" r="173.18" transform="translate(229.22 1367.37) rotate(-45)"/><circle class="cls-63" cx="1765.17" cy="406.99" r="150.8" transform="translate(1263.07 2147.49) rotate(-86.89)"/><circle class="cls-64" cx="1765.17" cy="406.99" r="142.04"/><circle class="cls-65" cx="1765.17" cy="406.99" r="118.73" transform="translate(1283.45 2153.24) rotate(-87.56)"/><path class="cls-62" d="M1731.47,538.58c-2.69-20.62-13.39-115.9-10.24-124.12,2.85-8,7.84-10.9,10-11.68a1.22,1.22,0,0,0,.89-1.36c-.72-7.23-6.08-56.54-6.08-56.54l-.24-.07-.22.09,0,3.46c-.33-3-.52-4.83-.52-4.83l-.24-.07-.22.09-.55,45.87a.77.77,0,0,1-.49.72l-4.32-45-.25-.09-.24.11-.06,3.63-.48-5-.24-.09-.25.11-.69,45.85a.81.81,0,0,1-.39.7l-4.22-44.95-.25-.08-.25.1-.06,3.65-.47-5-.24-.07-.25.09L1710,390a.78.78,0,0,1-.49.71l-4.08-45-.23-.07-.23.08s0,1.37-.11,3.67l-.46-5-.23-.07-.23.09s-1.47,49.57-1.62,56.85a1.21,1.21,0,0,0,1,1.28h0v.05a1.24,1.24,0,0,0,1,1.29,15.74,15.74,0,0,1,7.45,5.3,25,25,0,0,1,2.36,4.21c3.8,7.95.6,103.77-.46,124.54a18.71,18.71,0,0,0,4.33,12.63,19.14,19.14,0,0,0,5.73,5.41h0A18.74,18.74,0,0,0,1731.47,538.58ZM1719.55,550a18.72,18.72,0,0,1-3.09-8.12.24.24,0,0,1,0,.08c.61,2.66,1.72,5.46,4.86,9.41.31.42.63.86,1,1.31A17.73,17.73,0,0,1,1719.55,550Zm10.59-150.41a1.24,1.24,0,0,1-.88,1.35,3.28,3.28,0,0,0,.72-1.69c0-.23,0-.48,0-.75C1730.07,398.88,1730.1,399.25,1730.14,399.55Zm1,1.34a1.22,1.22,0,0,1-.89,1.36c-2.12.78-7.13,3.41-10,11.37A20.5,20.5,0,0,1,1725,405a14.35,14.35,0,0,1,5.13-3.57,1.22,1.22,0,0,0,.89-1.35c-.06-.61-.16-1.53-.28-2.68C1731,398.94,1731.08,400.14,1731.16,400.89Zm-7.72,153.16,0,0,.14.15Z"/><path class="cls-62" d="M1792.43,381.49c0-13.4-4.7-25.15-11.77-31.81-4.13-4.39-9.19-7-14.65-7-13.93,0-25.22,16.83-25.22,37.59,0,12.83,4.32,24.16,10.9,30.94,0,.64-.07,1.16-.09,1.55a1.21,1.21,0,0,0,.94,1.32l.26.09a1.21,1.21,0,0,0,.94,1.11,14.54,14.54,0,0,1,5.13,3.07,22.19,22.19,0,0,1,4.08,6.7c3.48,8.1-3.47,90.72-5.35,111.43a18.68,18.68,0,0,0,6.06,15.22,19.32,19.32,0,0,0,3.51,3h0a18.77,18.77,0,0,0,8.36-17c-1.87-20.71-8.83-103.33-5.35-111.42,3.15-7.84,8.26-10.27,10.41-11a1.21,1.21,0,0,0,.94-1.31c0-.38,0-.88-.09-1.46C1788.08,405.75,1792.43,394.38,1792.43,381.49Zm-38.94,31.35v-.14c0-.36,0-.85.09-1.44a35.87,35.87,0,0,1-8.62-15.91,37.34,37.34,0,0,0,8.58,12.89q-.06.88-.12,1.44a1.16,1.16,0,0,0,.88,1.25l.34.25a1.15,1.15,0,0,0,.86.95,38.45,38.45,0,0,1,3.29,2.73,16,16,0,0,1,3.59,5.69,17.75,17.75,0,0,0-3.11-3.72A14.38,14.38,0,0,0,1753.49,412.84Zm18-66.29a19.7,19.7,0,0,1,8.17,4.74c5.92,6.34,9.78,16.7,9.78,28.4a51.3,51.3,0,0,1-.44,6.76c.11-1.49.17-3,.17-4.42,0-13-4.14-24.2-10.89-30.49A21.33,21.33,0,0,0,1771.51,346.55Zm-19.2,65.26c.19.21.39.42.59.62,0,.06,0,.11,0,.17A1.07,1.07,0,0,1,1752.31,411.81Zm15.07,140.89.48-.61a18.8,18.8,0,0,0,4.35-5.44A17.8,17.8,0,0,1,1767.38,552.7Zm12.12-138.13a15.8,15.8,0,0,0-7.52,5.62,20.06,20.06,0,0,1,2.82-3.48,14.2,14.2,0,0,1,4.59-2.61,1.2,1.2,0,0,0,.91-.93l.16-.06a.34.34,0,0,1,0,.1A1.24,1.24,0,0,1,1779.5,414.57Z"/><path class="cls-62" d="M1822.21,343.47c-2-2.45-6.27-1-10.08,5.9-9,16.15-12.2,66-.78,91.5a14.22,14.22,0,0,1,.43,1.42c2.66,12.08-.21,74.51-2,94.28a18.73,18.73,0,0,0,8.39,17h0l0,0c.43.34.88.67,1.36,1h0a18.75,18.75,0,0,0,8.34-17c-1-10.6-3.39-54-4-94.44,3-41.12.32-86.31.79-93.57C1825,346.14,1823.92,344,1822.21,343.47Zm-9.76,98.39a2.75,2.75,0,0,0,.38.28,7.79,7.79,0,0,1,.34,1.12c0,.08,0,.17,0,.25A2.22,2.22,0,0,1,1812.45,441.86Zm8.9,1.94h-7.27a2.31,2.31,0,0,1-.24-1,2.88,2.88,0,0,0,1.8.69h6.28A.66.66,0,0,1,1821.35,443.8Zm-8.81-92.65c2.75-5.43,5.5-7.77,7.65-7.65-1.71.51-3.72,2.17-5.67,5.17a42.62,42.62,0,0,0-3.38,6.14A12,12,0,0,1,1812.54,351.15Zm7.25,201.39.33-.43a18.72,18.72,0,0,0,5.67-8.75A18,18,0,0,1,1819.79,552.54Zm3-107.77h-.11c0-.42,0-.84,0-1.25h.16A.63.63,0,1,1,1822.74,444.77Z"/><text class="cls-33" transform="translate(1626.14 1002.5)">餐廳</text><circle class="cls-3" cx="3596.34" cy="1874.8" r="410.3"/><path class="cls-66" d="M3423.1,2093.6a4.81,4.81,0,0,1-4.82-4.81l0-174.29a4.81,4.81,0,0,1,4.81-4.81h0a4.81,4.81,0,0,1,4.82,4.81l0,174.29a4.81,4.81,0,0,1-4.81,4.81Z"/><path class="cls-66" d="M3444.3,2023.11h0a49.43,49.43,0,0,1-23.53-6,4.82,4.82,0,0,1-2.52-4.12,49.12,49.12,0,0,1,72.57-44.38,4.81,4.81,0,0,1,2.51,4.12,49.1,49.1,0,0,1-49,50.35Zm-16.39-13.17a39.48,39.48,0,0,0,55.77-34.1,39.78,39.78,0,0,0-16.39-3.54,39.48,39.48,0,0,0-39.38,37.64Z"/><path class="cls-66" d="M3401.81,2023.11a49.1,49.1,0,0,1-49-50.35,4.8,4.8,0,0,1,2.52-4.12,49.53,49.53,0,0,1,23.52-6,49.12,49.12,0,0,1,49,50.35,4.81,4.81,0,0,1-2.51,4.12A49.46,49.46,0,0,1,3401.81,2023.11Zm-39.38-47.27a39.45,39.45,0,0,0,55.76,34.1,39.47,39.47,0,0,0-55.76-34.1Z"/><path class="cls-66" d="M3444.3,1924.7h0a49.43,49.43,0,0,1-23.53-6,4.84,4.84,0,0,1-2.52-4.11,49.12,49.12,0,0,1,72.57-44.39,4.82,4.82,0,0,1,2.51,4.12,49.1,49.1,0,0,1-49,50.35Zm-16.39-13.16a39.87,39.87,0,0,0,16.39,3.54,39.51,39.51,0,0,0,39.38-37.65,39.78,39.78,0,0,0-16.39-3.54,39.48,39.48,0,0,0-39.38,37.65Z"/><path class="cls-66" d="M3401.81,1924.7a49.1,49.1,0,0,1-49-50.35,4.81,4.81,0,0,1,2.52-4.12,49.53,49.53,0,0,1,23.52-6,49.12,49.12,0,0,1,49,50.36,4.81,4.81,0,0,1-2.51,4.11A49.49,49.49,0,0,1,3401.81,1924.7Zm-39.38-47.27a39.47,39.47,0,0,0,55.76,34.11,39.47,39.47,0,0,0-55.76-34.11Z"/><rect class="cls-66" x="3786.12" y="2008.09" width="9.63" height="85.51" rx="4.81" ry="4.81"/><path class="cls-66" d="M3812.16,2023.11h0a49.42,49.42,0,0,1-23.52-6,4.8,4.8,0,0,1-2.52-4.11,49.11,49.11,0,0,1,72.56-44.39,4.8,4.8,0,0,1,2.52,4.12,49.1,49.1,0,0,1-49,50.35Zm-16.38-13.17a39.47,39.47,0,0,0,55.76-34.1,39.47,39.47,0,0,0-55.76,34.1Z"/><path class="cls-66" d="M3769.68,2023.11a49.1,49.1,0,0,1-49-50.35,4.81,4.81,0,0,1,2.51-4.12,49.57,49.57,0,0,1,23.53-6,49.12,49.12,0,0,1,49,50.35,4.8,4.8,0,0,1-2.52,4.12A49.42,49.42,0,0,1,3769.68,2023.11Zm-39.39-47.27a39.46,39.46,0,0,0,55.77,34.1,39.47,39.47,0,0,0-55.77-34.1Z"/><path class="cls-66" d="M3607,2093.6a4.81,4.81,0,0,1-4.82-4.81l-.05-366.65a4.81,4.81,0,0,1,9.62,0l.06,366.65A4.81,4.81,0,0,1,3607,2093.6Z"/><path class="cls-66" d="M3634.63,1993.21h0a63,63,0,0,1-30-7.61,4.84,4.84,0,0,1-2.52-4.11,62.56,62.56,0,0,1,92.46-56.55,4.81,4.81,0,0,1,2.51,4.11,62.56,62.56,0,0,1-62.47,64.16Zm-22.86-14.79a53.46,53.46,0,0,0,22.86,5.16h0a52.94,52.94,0,0,0,52.84-51.47,53.46,53.46,0,0,0-22.86-5.16,52.94,52.94,0,0,0-52.84,51.47Z"/><path class="cls-66" d="M3579.23,1993.21a62.57,62.57,0,0,1-62.48-64.16,4.84,4.84,0,0,1,2.52-4.11,63.05,63.05,0,0,1,30-7.62,62.58,62.58,0,0,1,62.47,64.17,4.81,4.81,0,0,1-2.51,4.11A63,63,0,0,1,3579.23,1993.21Zm-52.84-61.1a52.93,52.93,0,0,0,75.7,46.31,52.93,52.93,0,0,0-75.7-46.31Z"/><path class="cls-66" d="M3634.63,1864.9h0a63.16,63.16,0,0,1-30-7.61,4.85,4.85,0,0,1-2.52-4.12,62.57,62.57,0,0,1,92.46-56.55,4.84,4.84,0,0,1,2.51,4.12,62.58,62.58,0,0,1-62.47,64.16Zm-22.86-14.79a53.46,53.46,0,0,0,22.86,5.16h0a52.94,52.94,0,0,0,52.84-51.47,53.46,53.46,0,0,0-22.86-5.16,52.94,52.94,0,0,0-52.84,51.47Z"/><path class="cls-66" d="M3579.23,1864.9a62.6,62.6,0,0,1-62.48-64.16,4.87,4.87,0,0,1,2.52-4.12,63,63,0,0,1,30-7.61,62.58,62.58,0,0,1,62.47,64.16,4.82,4.82,0,0,1-2.51,4.12A63,63,0,0,1,3579.23,1864.9Zm-52.84-61.1a52.93,52.93,0,0,0,75.7,46.31,52.93,52.93,0,0,0-75.7-46.31Z"/><circle class="cls-67" cx="3606.99" cy="1657.92" r="74.37"/><circle class="cls-68" cx="3606.99" cy="1657.92" r="60.54"/><path class="cls-67" d="M3588.66,1684.75q-4.53-4-4.53-12.81v-2.5h16.66v1.76q0,4.15,1.57,5.73a5.64,5.64,0,0,0,4.17,1.58,5,5,0,0,0,4.11-1.76,7.16,7.16,0,0,0-.55-9.26,18.44,18.44,0,0,0-5-3.19c-2-.89-4.18-1.79-6.52-2.68a28.54,28.54,0,0,1-6.53-3.52,17.62,17.62,0,0,1-5-5.69,18.57,18.57,0,0,1-2-9.16q0-17.31,16.93-20.08v-5.37h8.51v5.37q9.26.91,13.42,5.59t4.17,14.21H3612v-1.39a9.57,9.57,0,0,0-1.2-4.86,4,4,0,0,0-3.7-2.08,4.65,4.65,0,0,0-4.07,1.81,6.55,6.55,0,0,0-1.3,3.93,6.48,6.48,0,0,0,2.08,5.09,19,19,0,0,0,5.23,3.19q3.15,1.35,6.76,2.59a27.14,27.14,0,0,1,6.75,3.47,18,18,0,0,1,5.23,5.83q2.09,3.62,2.09,9.63,0,9.43-4.91,14t-14.44,5.55V1698H3602v-8.33Q3593.2,1688.79,3588.66,1684.75Z"/><path class="cls-69" d="M3583.09,1763.11a5,5,0,0,1-3.82-6.06h0a5.06,5.06,0,0,1,6.05-3.83h0a5.09,5.09,0,0,1,3.84,6.07h0a5.1,5.1,0,0,1-4.95,4h0A4.24,4.24,0,0,1,3583.09,1763.11Zm41.89-3.86a5.08,5.08,0,0,1,3.82-6.07h0a5.08,5.08,0,0,1,6.08,3.82h0a5.09,5.09,0,0,1-3.83,6.08h0a5.25,5.25,0,0,1-1.11.13h0A5.11,5.11,0,0,1,3625,1759.25Zm-85.15-16.93h0a5.06,5.06,0,0,1-.82-7.12h0a5.07,5.07,0,0,1,7.12-.81h0a5.06,5.06,0,0,1,.82,7.12h0a5.06,5.06,0,0,1-4,1.93h0A5.09,5.09,0,0,1,3539.83,1742.32Zm127.31-.91a5.05,5.05,0,0,1,.8-7.12h0a5.08,5.08,0,0,1,7.14.8h0a5.06,5.06,0,0,1-.82,7.12h0a5,5,0,0,1-3.16,1.1h0A5,5,0,0,1,3667.14,1741.41Zm-157.28-36.53a5.08,5.08,0,0,1,2.35-6.78h0a5.06,5.06,0,0,1,6.78,2.35h0a5.08,5.08,0,0,1-2.35,6.78h0a5.2,5.2,0,0,1-2.21.51h0A5.08,5.08,0,0,1,3509.86,1704.88Zm187.56,2.2a5.09,5.09,0,0,1-2.37-6.78h0a5.08,5.08,0,0,1,6.78-2.37h0a5.1,5.1,0,0,1,2.37,6.78h0a5.1,5.1,0,0,1-4.58,2.88h0A5.36,5.36,0,0,1,3697.42,1707.08Zm-198.3-49a5.08,5.08,0,0,1,5.07-5.09h0a5.07,5.07,0,0,1,5.08,5h0a5.08,5.08,0,0,1-5.06,5.09h0A5.07,5.07,0,0,1,3499.12,1658.12Zm205.59-.21v-.13h0a.78.78,0,0,1,0-.22h0a5.1,5.1,0,0,1,5.06-5.09h0a5.09,5.09,0,0,1,5.09,5.06h0v.2h0v.18h0a5.08,5.08,0,0,1-5.07,5.08h0A5.07,5.07,0,0,1,3704.71,1657.91Zm-192.63-39.84a5.06,5.06,0,0,1-2.39-6.77h0a5.07,5.07,0,0,1,6.77-2.38h0a5.06,5.06,0,0,1,2.38,6.76h0a5.08,5.08,0,0,1-4.58,2.9h0A5,5,0,0,1,3512.08,1618.07Zm182.82-2.84h0a5.07,5.07,0,0,1,2.35-6.78h0a5.06,5.06,0,0,1,6.78,2.33h0a5.08,5.08,0,0,1-2.35,6.78h0a4.9,4.9,0,0,1-2.22.53h0A5.11,5.11,0,0,1,3694.9,1615.23Zm-156.14-34.37a5.06,5.06,0,0,1,.78-7.12h0a5.08,5.08,0,0,1,7.14.78h0a5.08,5.08,0,0,1-.78,7.14h0a5.15,5.15,0,0,1-3.18,1.11h0A5.06,5.06,0,0,1,3538.76,1580.86Zm128.91.48h0a5.08,5.08,0,0,1-.81-7.14h0a5.05,5.05,0,0,1,7.12-.81h0a5.06,5.06,0,0,1,.83,7.12h0a5.08,5.08,0,0,1-4,1.92h0A5.09,5.09,0,0,1,3667.67,1581.34Zm-88.76-22.46a5.09,5.09,0,0,1,3.81-6.08h0a5.06,5.06,0,0,1,6.09,3.81h0a5.08,5.08,0,0,1-3.81,6.07h0a5.16,5.16,0,0,1-1.15.14h0A5.07,5.07,0,0,1,3578.91,1558.88Zm49.56,3.7h0a5.09,5.09,0,0,1-3.84-6.07h0a5.09,5.09,0,0,1,6.07-3.84h0a5.09,5.09,0,0,1,3.84,6.07h0a5.09,5.09,0,0,1-5,4h0A5.24,5.24,0,0,1,3628.47,1562.58Z"/><path class="cls-66" d="M3923.1,2093.6H3319.58a4.81,4.81,0,0,1,0-9.62H3923.1a4.81,4.81,0,1,1,0,9.62Z"/><polygon class="cls-70" points="3366.01 1805.39 3307.37 1756.92 3330.19 1729.62 3395.15 1762.44 3366.01 1805.39"/><g class="cls-71"><polygon class="cls-72" points="3366.01 1805.39 3307.37 1756.92 3330.19 1729.62 3395.15 1762.44 3366.01 1805.39"/></g><path class="cls-67" d="M3555.68,1856.08,3540,1820.76a3.1,3.1,0,1,0-5.67,2.52l.1.23a19.31,19.31,0,0,0-8.58,18.77l-56.32,18.32,24.23-58.08a3.09,3.09,0,0,0,2.63-5.59L3428,1761a3.09,3.09,0,0,0-3.11,5.34l-.83,1.28c-3.83-5.31-10.57-12.29-20.32-14-10.82-1.89-22.22,3.15-33.88,15-20.59,20.91-11.24,38.87-3.72,53.3,6.09,11.7,9.71,19.63,4.86,28.23l-3.4,5.29-.24-.13a3.1,3.1,0,0,0-2.89,5.49l85.85,45.16a3.1,3.1,0,0,0,2.89-5.49l-.25-.13.21-.51,77.41-47.23a19.33,19.33,0,0,0,19.28,5.82l.11.23a3,3,0,0,0,1.39,1.48,3.1,3.1,0,0,0,4.28-4Zm-181.25-38.5c-7.37-14.17-11-23.55,4.85-39.63,9.37-9.51,15.23-16.52,22.85-15.2,8.69,1.49,14.37,9.82,16.46,13.42l-37.12,57.71C3380,1828.18,3377.12,1822.73,3374.43,1817.58Z"/><g class="cls-71"><path class="cls-72" d="M3369.3,1815.14a9.69,9.69,0,0,0,4.92,2c-6.61-12.73-10-21.65,1.42-35.24a7.9,7.9,0,0,0-8.47,2.46h0c-2.17,2.78-1.93,6.76.31,9.78-3.49-1.47-7.43-.74-9.61,2.06-.15.2-.29.4-.42.61a40,40,0,0,0,2.2,10.75c.14.12.28.25.42.36Z"/></g><g class="cls-71"><path class="cls-72" d="M3385.78,1760.69a8.07,8.07,0,0,0,.31,9.78c-3.49-1.46-7.43-.73-9.61,2.06h0a7.89,7.89,0,0,0-.33,8.8c.95-1.1,2-2.22,3.13-3.38,8.93-9.07,14.68-15.85,21.8-15.33l-3.4-2.64C3393.79,1756.94,3388.46,1757.26,3385.78,1760.69Z"/></g><path class="cls-70" d="M3406.61,1763.8l-9.23-7.2c-3.89-3-9.22-2.72-11.9.72-2.17,2.78-1.93,6.76.31,9.78-3.49-1.47-7.43-.74-9.61,2.06h0c-2.18,2.78-1.94,6.76.3,9.78-3.49-1.46-7.43-.73-9.61,2.06h0c-2.17,2.79-1.93,6.76.31,9.79-3.49-1.47-7.43-.74-9.61,2.06-2.68,3.43-1.69,8.68,2.2,11.72l9.23,7.19c3.89,3,9.22,2.72,11.9-.71h0c2.17-2.79,1.93-6.76-.31-9.79,3.49,1.47,7.43.74,9.61-2.06s1.94-6.75-.31-9.78c3.49,1.47,7.43.74,9.61-2.06s1.94-6.76-.3-9.78c3.49,1.46,7.43.73,9.61-2.06C3411.49,1772.08,3410.5,1766.84,3406.61,1763.8Z"/><g class="cls-71"><path class="cls-72" d="M3333.87,1720.89l10.31,9.68a29.71,29.71,0,0,0,18.74,8l17.66,1a7.14,7.14,0,0,1,6.22,2.8l15.09,19.81a7.18,7.18,0,0,1,1.2,6.22l-4.38,16a2.81,2.81,0,0,1-3.57,1.93h0a12.45,12.45,0,0,1-8.67-11.7l-.14-7.41-7.44-7.36s-24,16-52.73-2l3.6-26.94Z"/></g><path class="cls-70" d="M3334.11,1719.56l10.48,9.49a29.8,29.8,0,0,0,18.88,7.68l17.68.65a7.13,7.13,0,0,1,6.27,2.68l15.44,19.54a7.15,7.15,0,0,1,1.31,6.2l-4.09,16a2.81,2.81,0,0,1-3.53,2h0a12.48,12.48,0,0,1-8.89-11.55l-.26-7.4-7.58-7.22s-23.73,16.4-52.76-1.06l3.12-27Z"/><polygon class="cls-19" points="3312.78 1765.79 3317.23 1769.4 3348.8 1728.36 3344.07 1724.49 3312.78 1765.79"/><polygon class="cls-73" points="3271.17 1738.51 3310.23 1769.21 3346.06 1722.26 3271.22 1657.74 3271.17 1738.51"/><g class="cls-71"><polygon class="cls-72" points="3310.23 1769.21 3312.82 1765.82 3317.23 1769.4 3327.06 1756.61 3271.25 1711.35 3271.17 1738.51 3310.23 1769.21"/></g><g class="cls-71"><path class="cls-74" d="M3309.39,1751.1a5,5,0,1,0,2.46,6.63A5,5,0,0,0,3309.39,1751.1Z"/></g><g class="cls-71"><path class="cls-74" d="M3298,1741.59a5,5,0,1,0,2.46,6.62A5,5,0,0,0,3298,1741.59Z"/></g><path class="cls-69" d="M3558.33,1835.85a2.63,2.63,0,0,1-1.81-.74,2.59,2.59,0,0,1-.74-1.81,2.56,2.56,0,0,1,.74-1.79,2.63,2.63,0,0,1,3.6,0,2.57,2.57,0,0,1,.75,1.79,2.6,2.6,0,0,1-.75,1.81A2.56,2.56,0,0,1,3558.33,1835.85Z"/><path class="cls-69" d="M3576.11,1833.52h0a2.55,2.55,0,0,1-2.09-2.94h0a2.54,2.54,0,0,1,2.94-2.07h0a2.54,2.54,0,0,1,2.08,2.92h0a2.54,2.54,0,0,1-2.5,2.13h0A3.13,3.13,0,0,1,3576.11,1833.52Z"/><path class="cls-69" d="M3618.48,1924.87a2.54,2.54,0,0,1,2.5-2.57h0a2.55,2.55,0,0,1,2.59,2.52h0a2.56,2.56,0,0,1-2.52,2.57h0A2.53,2.53,0,0,1,3618.48,1924.87Zm-.89-18.39h0a2.55,2.55,0,0,1,2.31-2.76h0a2.55,2.55,0,0,1,2.76,2.31h0a2.55,2.55,0,0,1-2.31,2.77h-.22A2.56,2.56,0,0,1,3617.59,1906.48Zm-2.49-18.17a2.56,2.56,0,0,1,2-3h0a2.54,2.54,0,0,1,3,2h0a2.53,2.53,0,0,1-2,3h0a1.88,1.88,0,0,1-.47,0h0A2.58,2.58,0,0,1,3615.1,1888.31Zm-4.6-17.65h0a2.54,2.54,0,0,1,1.58-3.23h0a2.55,2.55,0,0,1,3.24,1.58h0a2.55,2.55,0,0,1-1.59,3.24h0a2.62,2.62,0,0,1-.83.13h0A2.55,2.55,0,0,1,3610.5,1870.66Zm-7.51-16.39h0a2.54,2.54,0,0,1,.85-3.48h0a2.54,2.54,0,0,1,3.5.85h0a2.52,2.52,0,0,1-.86,3.48h0a2.44,2.44,0,0,1-1.31.37h0A2.52,2.52,0,0,1,3603,1854.27Zm-11.4-13.47a2.55,2.55,0,0,1-.36-3.58h0a2.54,2.54,0,0,1,3.58-.37h0a2.56,2.56,0,0,1,.37,3.58h0a2.57,2.57,0,0,1-2,.94h0A2.55,2.55,0,0,1,3591.59,1840.8Z"/><path class="cls-69" d="M3620.65,1946.05a2.55,2.55,0,0,1-1.79-4.35,2.65,2.65,0,0,1,3.6,0,2.59,2.59,0,0,1,.74,1.81,2.56,2.56,0,0,1-.74,1.79A2.6,2.6,0,0,1,3620.65,1946.05Z"/><path class="cls-69" d="M3551.24,1826.2a2.51,2.51,0,0,1-2.54-2.54,2.53,2.53,0,0,1,.74-1.8,2.64,2.64,0,0,1,3.6,0,2.55,2.55,0,0,1,0,3.61A2.58,2.58,0,0,1,3551.24,1826.2Z"/><path class="cls-69" d="M3565.75,1818.12a2.52,2.52,0,0,1,2.14-2.88h0a2.51,2.51,0,0,1,2.88,2.12h0a2.52,2.52,0,0,1-2.12,2.9h0a1.69,1.69,0,0,1-.38,0h0A2.56,2.56,0,0,1,3565.75,1818.12Z"/><path class="cls-69" d="M3644.15,1919.23h0a2.54,2.54,0,0,1,2.5-2.58h0a2.53,2.53,0,0,1,2.59,2.5h0a2.54,2.54,0,0,1-2.49,2.59h0A2.55,2.55,0,0,1,3644.15,1919.23Zm-1.15-17.81a2.54,2.54,0,0,1,2.22-2.83h0a2.56,2.56,0,0,1,2.83,2.23h0a2.54,2.54,0,0,1-2.23,2.82h0l-.3,0h0A2.54,2.54,0,0,1,3643,1901.42Zm-3.11-17.53a2.54,2.54,0,0,1,1.88-3.07h0a2.53,2.53,0,0,1,3.07,1.88h0a2.54,2.54,0,0,1-1.87,3.06h0a2.11,2.11,0,0,1-.6.08h0A2.55,2.55,0,0,1,3639.89,1883.89Zm-5.37-16.88a2.54,2.54,0,0,1,1.4-3.32h0a2.56,2.56,0,0,1,3.32,1.4h0a2.56,2.56,0,0,1-1.41,3.32h0a2.44,2.44,0,0,1-.95.19h0A2.56,2.56,0,0,1,3634.52,1867Zm-8-15.71a2.54,2.54,0,0,1,.79-3.52h0a2.54,2.54,0,0,1,3.51.79h0a2.55,2.55,0,0,1-.79,3.51h0a2.55,2.55,0,0,1-1.36.4h0A2.55,2.55,0,0,1,3626.52,1851.3Zm-10.89-13.73a2.55,2.55,0,0,1,0-3.61h0a2.55,2.55,0,0,1,3.6,0h0a2.57,2.57,0,0,1,0,3.61h0a2.58,2.58,0,0,1-1.8.75h0A2.56,2.56,0,0,1,3615.63,1837.57Zm-13.77-10.63h0a2.53,2.53,0,0,1-.95-3.46h0a2.54,2.54,0,0,1,3.47-1h0a2.54,2.54,0,0,1,.94,3.47h0a2.5,2.5,0,0,1-2.2,1.28h0A2.58,2.58,0,0,1,3601.86,1826.94Zm-16.08-6.17a2.54,2.54,0,0,1-2-3h0a2.54,2.54,0,0,1,3-2h0a2.53,2.53,0,0,1,2,3h0a2.55,2.55,0,0,1-2.5,2h0A2.14,2.14,0,0,1,3585.78,1820.77Z"/><path class="cls-69" d="M3646.19,1939.92a2.55,2.55,0,0,1-1.79-4.35,2.65,2.65,0,0,1,3.6,0,2.58,2.58,0,0,1,0,3.6A2.64,2.64,0,0,1,3646.19,1939.92Z"/><path class="cls-69" d="M3560.76,1848.74a2.65,2.65,0,0,1-1.81-.74,2.58,2.58,0,0,1-.73-1.81,2.53,2.53,0,0,1,.73-1.79,2.63,2.63,0,0,1,3.6,0,2.49,2.49,0,0,1,.75,1.79,2.52,2.52,0,0,1-.75,1.81A2.56,2.56,0,0,1,3560.76,1848.74Z"/><path class="cls-69" d="M3577,1851.1a2.55,2.55,0,0,1-.6-3.55h0a2.55,2.55,0,0,1,3.55-.59h0a2.55,2.55,0,0,1,.6,3.55h0a2.54,2.54,0,0,1-2.07,1.06h0A2.48,2.48,0,0,1,3577,1851.1Z"/><path class="cls-69" d="M3594.85,1921.34a2.56,2.56,0,0,1-2.52-2.57h0a2.55,2.55,0,0,1,2.57-2.53h0a2.55,2.55,0,0,1,2.52,2.57h0a2.55,2.55,0,0,1-2.55,2.53h0Zm-2.85-20.85h0a2.57,2.57,0,0,1,2.42-2.68h0a2.58,2.58,0,0,1,2.67,2.43h0a2.54,2.54,0,0,1-2.42,2.67h-.13A2.54,2.54,0,0,1,3592,1900.49Zm-1.68-18.1a2.54,2.54,0,0,1,2.15-2.89h0a2.53,2.53,0,0,1,2.87,2.14h0a2.53,2.53,0,0,1-2.13,2.89h0a1.67,1.67,0,0,1-.38,0h0A2.54,2.54,0,0,1,3590.32,1882.39Zm-4.11-17.4h0a2.55,2.55,0,0,1,1.53-3.27h0a2.54,2.54,0,0,1,3.25,1.52h0a2.54,2.54,0,0,1-1.52,3.26h0a2.19,2.19,0,0,1-.87.15h0A2.53,2.53,0,0,1,3586.21,1865Z"/><path class="cls-69" d="M3594.33,1939.78a2.55,2.55,0,0,1-1.8-4.35,2.64,2.64,0,0,1,3.59,0,2.55,2.55,0,0,1,.75,1.8,2.56,2.56,0,0,1-2.54,2.55Z"/><text class="cls-33" transform="translate(3457.34 2470)">投資</text></g><g id="Layer_3" data-name="Layer 3"><polygon class="cls-1" points="2551.82 1748.75 2525.08 1706.35 2008.35 2416.3 2551.82 1748.75"/><path class="cls-1" d="M1866.29,1674c-28.46,21.69-65.25,42.37-112.73,58.74,0,0-48.61,20-102.36,31.89l-.06.12c-2.66,5.31-88.25,175.76-166.19,236.71-79.17,61.9-40.54,99.55-40.54,99.55s44.61-.93,87.65-35.66a171.06,171.06,0,0,0,17.54-16.31l70.65-5.25,208.86-313.93Z"/><rect class="cls-75" x="985.32" y="3669.78" width="793.73" height="751.28" transform="translate(-2663.23 5427.61) rotate(-90)"/><path class="cls-76" d="M1717.43,1442.37s-25.57,10.93-.8,28c0,0,42.6,38.43,124.8-7.77,0,0,77.8-32.3,82.81-83l1-28.62Z"/><path class="cls-77" d="M1924.12,1561.9l-40.22,65.81c-28.43,46.51-71.21,82.81-122.21,102.1q-2.2.84-4.46,1.65c-1.22.45-2.44.88-3.67,1.29,0,0-48.61,20-102.36,31.89l-.06.12c-2.66,5.31-100.67,150-166.19,236.71-53,70.15-67.81,175.32-67.81,175.32s-35,24.86-62.11-16.35-3.06-70.19-3.06-70.19-115.49-53.86-121.87-90.9c0,0,6.39-21.25,90.21,26.13,0,0,28.33,18.41,57.38,18.22,0,0,15.72,2.34,35.39-18a133.8,133.8,0,0,1,29-23c8.37-4.84,18.08-9.87,26.62-12.77,0,0,9.36-5.35,75.58-96.46,0,0,56.17-83,63.31-123.83,0,0-142.26-56.21-129-80.68,0,0,197.42,24.09,316.11-40.1C1794.75,1648.86,1848.71,1617.32,1924.12,1561.9Z"/><path class="cls-78" d="M2608.06,1540.08l173.12-217.87c21.45-32,24.12-65.58,19.43-94.45v0c-7.23-44.53-31.88-78-31.88-78-59.2-89.84-129.54-77.45-168.73-60.11-18.64,8.25-29.5,18-29.5,18l-227,317.3,162.07,258.21Z"/><path class="cls-79" d="M3014.18,2121.6c-.27,4.4-.46,8.56-.69,12.7a184.2,184.2,0,0,1-4.74,34.22s-19.31,85.32-57.56,114.5c0,0-55.92,73.87-78.4,94.88-.59.54-1.14,1-1.67,1.51s-1,.83-1.41,1.19c-.17.15-.35.28-.51.42l-.48.37-.44.33c-18.17,13.13-73.3,123-73.3,123l-226.15,399.17s-42.06,103.39-211.51,221.39h0l-.09.07a0,0,0,0,0,0,0c-2.58,2.29-55.28,49.88-72.86,129.48-.11.52-.23,1-.34,1.57l-.45,2.18c-.16.73-.31,1.46-.43,2.2-.3,1.45-.57,2.91-.81,4.37-.15.77-.29,1.56-.41,2.33-5.36,32.41-1.39,73.3-.41,103,2,59.56,14.28,140.26,31.72,202.28l-41.83,121.07,37.14,431.67L1239.21,4238.2l11.51-598,1.72-469.28a163.3,163.3,0,0,0-10.92-54.55c-18.35-47.5-101.93-205.75-124.6-257.89l401.6-821.72a168.05,168.05,0,0,0,14.25-13.69l70.58-4.84L1810,1702.27l36.77-56.22h0l97.79-149.51,708.67-823.2c19.82-30.3,53.2-49.24,89.36-49.08,28.19.13,75.85,8.22,98.11,47.44,18.9,33.24,23,72.85,12.51,109.32-11.14,38.74-62.23,102.34-121.87,208.71l-367.67,467.48,141.83,225.93-511.77,714.18,538.78-671.14L2699,1991.37l-133,171.25-322.17,395.83-10.19,28.76c3.91-4.67,462.63-566,532.69-584,0,0,17.56-16,48-27.94,88.15-34.45,186.34,21.73,198.62,115.58A185.69,185.69,0,0,1,3014.18,2121.6Z"/><path class="cls-78" d="M3013.49,2134.3a184.2,184.2,0,0,1-4.74,34.22s-19.31,85.32-57.56,114.5c0,0-55.92,73.87-78.4,94.88-.59.54-1.14,1-1.67,1.51s-1,.83-1.41,1.19c-.17.15-.35.28-.51.42l-.48.37-.44.33c-18.17,13.13-73.3,123-73.3,123l-226.15,399.17s-42.06,103.39-211.51,221.39h0l-.09.07a0,0,0,0,0,0,0c-2.62,2.06-54.27,43.8-72.86,129.48-.11.52-.23,1-.34,1.57l-.45,2.18-.43,2.2c-.28,1.44-.56,2.9-.81,4.37-.15.77-.29,1.56-.41,2.33-3-8-27.09-67.44-116.54-133.77L2027.09,3045s-22.28-19.29-13.09-28.07c0,0,52.44,38.61,78.84,40.33,0,0,134.92,49.8,242.89-19.54,0,0,89.21-25.05,211.3-196.11,0,0,65.1-88.44,134.88-228.13l124.51-210.25s-102.86,26.65-107.68-11.16l-4.89-58.34s54.88,45,92.67,36.31c0,0,37.11,4.65,84-55.27Z"/><path class="cls-78" d="M2898.87,1789c119.08-113-3.34-261.06-3.34-261.06-39.67-46.3-108.94-24.17-108.94-24.17l-254,214.44L2592,2056.66Z"/><rect class="cls-19" x="1623.97" y="2872.63" width="267.71" height="1333.44" transform="translate(-1781.52 5297.17) rotate(-90)"/><rect class="cls-80" x="1365.64" y="3294.14" width="793.73" height="1502.56" transform="translate(-2282.92 5807.92) rotate(-90)"/><path class="cls-81" d="M2364,1212.62c-371.81-110.11-762.53,102.08-872.67,473.92s102.11,762.55,474,872.66,762.54-102.1,872.69-473.92S2735.83,1322.7,2364,1212.62Z"/><path class="cls-82" d="M2328,1334.21c-304.65-90.17-624.73,83.71-715,388.37s83.68,624.79,388.33,715,624.74-83.63,715-388.32S2632.58,1424.47,2328,1334.21Z"/><path class="cls-83" d="M2496.84,1852.48c39.76-99.54-8.87-212.86-108.4-252.62l-15.47-6.18,36.86-92.27-80-32-27.52,12.32-28.83,72.16-54.7-21.85,36.86-92.27-80-32-27.52,12.32-20.8,52L2044,1438.94l-27.52,12.32-43.69,109.38,72.64,29-149.31,373.76L1843,1942.19l-27.52,12.32-43.69,109.38,102.8,41.07-28.83,72.16,80,32,27.52-12.32,20.79-52.05,54.7,21.85-28.82,72.16,80,32,27.51-12.32,20.8-52.05,15.47,6.18c99.53,39.76,212.86-8.86,252.63-108.4a193.7,193.7,0,0,0-1.06-146.31A193.59,193.59,0,0,0,2496.84,1852.48ZM2187.4,2103.1l-189.94-75.88L2054.27,1885l189.94,75.88.39.13a76.59,76.59,0,0,1-57.2,142.09Zm100.89-251.47c-.13-.05-.24-.12-.36-.17L2098,1775.58l56.82-142.22,189.94,75.88a76.59,76.59,0,0,1-56.45,142.39Z"/><path class="cls-83" d="M2524.36,1840.16c39.76-99.53-8.87-212.86-108.4-252.62l-35-14,28.83-72.16-80-32L2301,1541.61,2226.8,1512l28.83-72.16-80-32L2146.79,1480,2044,1438.94l-43.69,109.39,72.64,29-157.35,393.86-72.64-29-43.69,109.38,102.79,41.07-28.82,72.16,80,32,28.83-72.17,74.18,29.64-28.83,72.16,80,32,28.82-72.16,35,14c99.53,39.76,212.86-8.86,252.63-108.4a193.67,193.67,0,0,0-1.06-146.3A193.64,193.64,0,0,0,2524.36,1840.16Zm-309.44,250.62L2025,2014.91l56.81-142.23,189.95,75.88.38.13a76.59,76.59,0,0,1-57.2,142.09Zm100.89-251.47-.36-.17-189.95-75.88L2182.32,1621l189.94,75.88a76.59,76.59,0,0,1-56.45,142.39Z"/><path class="cls-79" d="M1416.15,2225.76c-1.56-42.12,6.25-112.34,6.25-112.34s12.41-38.72,62.55-112c55.89-81.64,163.53-231.4,166.19-236.71l.06-.12c53.75-11.87,102.36-31.89,102.36-31.89,1.23-.41,2.45-.84,3.67-1.29,1.6-.58,3.19-1.16,4.75-1.76,50.91-19.32,93.59-55.64,122-102.1l40.16-65.7,12-19.64a141.45,141.45,0,0,0,16.24-109.58,317,317,0,0,0-32.88-78.85l-177.83,76.27c-46.26,30.78-190,53-190,53-118.08,20.78-147.18,68.57-147.18,68.57l-212.56,250.5c-114.53,104.73-209.3,325.37-209.3,325.37-56.56,133,24.94,257.07,24.94,257.07,10.08,21.64,51.08,180.34,51.08,180.34-.18,22.65,21.49,147.65,29.47,192.93a256.81,256.81,0,0,0,7,29.21c7.69,25.64,16.36,63.39,31.72,94.66l293.66-584.89C1419.37,2297.73,1416.2,2227.13,1416.15,2225.76Z"/><path class="cls-79" d="M2404.74,1272.89s-47.77,83.49,46.62,175.58a78.52,78.52,0,0,0,8.17,8c38.84,33.86,96.72,33.93,136.07.67l190.23-160.75a88.42,88.42,0,0,0,30.39-81.3c-.4-2.47-.89-4.85-1.49-7.1-6.36-24-14.18-42.23-31-67.19s-40.15-28.94-93.34-28.46-65.64,16.83-101,34.75C2523.7,1180.39,2421.72,1236.63,2404.74,1272.89Z"/><path class="cls-79" d="M2724,1497.24a121.79,121.79,0,0,0-31.93,19.7l-115.36,97.89S2530.87,1652.37,2550,1715c0,0,11.45,79.62,88.3,133.73,14.81,10.43,32.09,16.88,50,17.72a79,79,0,0,0,34.43-5.79c24.35-10.17,47.22-23.61,65.79-42.53l146.09-148.86s7.47-118.09-80.38-174C2854.3,1495.28,2801.88,1464.86,2724,1497.24Z"/><path class="cls-79" d="M3034.16,2096.64h0c.06,3.16-1.4,6.67-4.13,9.94l-135.77,162.57c-10.69,13.77-30.14,30-40.44,39.83-36.37,34.54-91.49,52.76-133,44.91-128.88-24.39-146.17-91.44-150-128.34a89.49,89.49,0,0,1,.09-14.15c2.05-28.69,18.79-60,46.6-87.73l82.09-82c7.22-7.57,17-16.07,26.72-21.77l33.22-18.4c62.42-31.06,170.73-65.84,242.06,17.21C3001.62,2018.73,3032.1,2048.91,3034.16,2096.64Z"/></g></g></g></svg>