<svg xmlns="http://www.w3.org/2000/svg" xmlns:xlink="http://www.w3.org/1999/xlink" viewBox="0 0 2055.45 1075.83"><defs><style>.cls-1{isolation:isolate;}.cls-2{font-size:49.55px;font-family:MicrosoftJhengHeiLight, Microsoft JhengHei;}.cls-12,.cls-16,.cls-3{fill:none;stroke-miterlimit:10;}.cls-3{stroke:#3599d1;}.cls-4{fill:#f7f6f5;}.cls-5{fill:#c1d5d5;}.cls-6{opacity:0.15;}.cls-7{fill:#fff;}.cls-8{fill:#ffce2e;}.cls-9{opacity:0.08;mix-blend-mode:multiply;}.cls-10{fill:#605f5f;}.cls-11{fill:url(#linear-gradient);}.cls-12{stroke:#231f20;}.cls-13{fill:#c9a223;}.cls-14{fill:#ad8c1e;}.cls-15{fill:#b7a558;}.cls-16{stroke:#fff;stroke-width:1.21px;}.cls-17{fill:#296d94;}.cls-18{fill:#ffca05;}.cls-19{fill:#f6921e;}</style><linearGradient id="linear-gradient" x1="396.52" y1="704.49" x2="408.33" y2="698.15" gradientUnits="userSpaceOnUse"><stop offset="0" stop-color="#fff" stop-opacity="0"/><stop offset="1" stop-color="#fff" stop-opacity="0.4"/></linearGradient></defs><title>Asset 12</title><g class="cls-1"><g id="Layer_2" data-name="Layer 2"><g id="OBJECTS"><text class="cls-2" transform="translate(1312.17 714.48)">利用特殊電腦設備進行“挖礦”，<tspan x="0" y="59.46">驗證交易並維護區塊鏈安全，</tspan><tspan x="0" y="118.92">以得到加密貨幣作為獎勵。</tspan></text><text class="cls-2" transform="translate(0 374.73)">加密貨幣被存於電子錢包中，<tspan x="0" y="59.46">利用公鑰（錢包地址）及</tspan><tspan x="0" y="118.92">私鑰（錢包密碼）來進行交易。</tspan></text><text class="cls-2" transform="translate(14.38 997.87)">加密貨幣建立在區塊鏈上，<tspan x="0" y="59.46">去中心化的特性使其安全性極高。</tspan></text><line class="cls-3" x1="906.48" y1="722.18" x2="614.17" y2="722.18"/><path class="cls-4" d="M1229,630.71c0-87.85-71.48-159.33-159.34-159.33H1056V389.94H985.38l-17.21,17.75v63.69H919.89V389.94H849.27l-17.2,17.75v45.95H758.53l-17.2,17.74v96.55h64.12V897.84H758.53l-17.2,17.74v96.55h90.74v63.7h70.62l17.2-17.75v-45.95h48.28v63.7h70.63l17.2-17.75v-45.95h13.65c87.86,0,159.34-71.47,159.34-159.33a158.72,158.72,0,0,0-45.29-111A158.76,158.76,0,0,0,1229,630.71ZM1069.65,915.58H902V790.05h167.65l.33,0a62.78,62.78,0,0,1-.33,125.55Zm.33-222.1H902V567.93h167.65a62.78,62.78,0,0,1,.33,125.55Z"/><path class="cls-5" d="M1246.19,613c0-87.86-71.48-159.33-159.33-159.33H1056v-63.7H985.37v63.7H919.89v-63.7H849.27v63.7H758.53v96.55h64.12V897.84H758.53v96.55h90.74v63.69h70.62V994.39h65.48v63.69H1056V994.39h30.86c13.74,1.26,65.43,4.35,111.69-30.86A160.06,160.06,0,0,0,1248,898.64c5.86-14.06,20-49.23,9.27-92.69-12-48.31-46.19-74.67-56.36-81.94A158.72,158.72,0,0,0,1246.19,613ZM1086.86,897.84H919.2V772.3h168a62.78,62.78,0,0,1-.33,125.55Zm.33-222.1-.33,0H919.2V550.19h167.66a62.78,62.78,0,0,1,.33,125.55Z"/><g class="cls-6"><rect x="421.31" y="827.15" width="68.19" height="58.62"/><rect x="303.17" y="643.91" width="306.03" height="194.09" rx="2.75" ry="2.75"/><rect x="344.78" y="885.77" width="221.25" height="8.5"/></g><rect class="cls-7" x="429.87" y="818.6" width="68.19" height="58.62"/><rect class="cls-6" x="429.87" y="818.6" width="68.19" height="20.4"/><rect class="cls-7" x="311.72" y="635.35" width="306.03" height="194.09" rx="2.75" ry="2.75"/><rect class="cls-8" x="334.03" y="657.53" width="261.41" height="149.72"/><g class="cls-9"><polygon points="339.94 657.53 334.03 657.53 334.03 807.25 595.44 807.25 595.44 800.85 339.94 800.85 339.94 657.53"/></g><rect class="cls-7" x="353.34" y="877.22" width="221.25" height="8.5"/><polygon class="cls-10" points="417.1 699.48 397.46 710.8 383.89 702.96 397.46 695.13 405 699.48 411.05 695.99 397.46 688.14 374.82 701.22 374.82 704.69 394.44 716.03 394.44 731.71 380.87 723.87 380.87 715.16 374.82 711.67 374.82 727.36 397.46 740.44 400.47 738.7 400.49 716.03 414.06 708.2 414.06 723.87 406.52 728.23 406.52 735.21 420.11 727.36 420.11 701.22 417.1 699.48"/><polygon class="cls-11" points="397.61 705.22 415.52 694.9 413.79 693.91 395.88 704.23 397.61 705.22"/><line class="cls-12" x1="426.68" y1="710.19" x2="499.54" y2="710.19"/><polygon class="cls-10" points="550.1 695.62 530.46 706.93 516.89 699.1 530.46 691.26 538 695.62 544.05 692.12 530.46 684.28 507.82 697.35 507.82 700.82 527.44 712.17 527.44 727.84 513.87 720.01 513.87 711.3 507.82 707.81 507.82 723.5 530.46 736.57 533.47 734.84 533.49 712.17 547.06 704.34 547.06 720.01 539.51 724.36 539.51 731.35 553.11 723.5 553.11 697.35 550.1 695.62"/><polygon class="cls-10" points="486.71 744.12 467.07 755.44 453.5 747.6 467.07 739.77 474.61 744.12 480.66 740.63 467.07 732.78 444.42 745.86 444.42 749.33 464.04 760.67 464.04 776.35 450.47 768.51 450.47 759.8 444.42 756.31 444.42 772 467.07 785.08 470.07 783.34 470.09 760.67 483.66 752.84 483.66 768.51 476.12 772.87 476.12 779.85 489.71 772 489.71 745.86 486.71 744.12"/><line class="cls-12" x1="407.46" y1="737.42" x2="437.89" y2="751.58"/><line class="cls-12" x1="494.15" y1="752.87" x2="523.22" y2="736.09"/><path class="cls-6" d="M1577.49,428.94a11.7,11.7,0,0,1,1.76-14.07l.4-.4-19.88-19.87-.39.4a11.73,11.73,0,0,1-14.08,1.76,83.56,83.56,0,0,0-67.14-6.2c20.62,1.54,42.07,10,60.72,24.93l-3.58,3.59a4.16,4.16,0,0,0,0,5.89l.77.77-30.33,30.34-4.17-4.16L1357.74,595.75a13.27,13.27,0,0,0,0,18.76l2,2a13.27,13.27,0,0,0,18.76,0l143.83-143.84-4.16-4.16,30.33-30.33.78.77a4.16,4.16,0,0,0,5.89,0l3.58-3.58c14.91,18.65,23.4,40.1,24.94,60.72A83.63,83.63,0,0,0,1577.49,428.94Z"/><rect class="cls-7" x="1526.28" y="418.11" width="17.58" height="64.47" transform="translate(768.03 -953.55) rotate(45)"/><rect class="cls-6" x="1540.63" y="424.05" width="17.58" height="23.86" transform="translate(762.1 -967.91) rotate(45)"/><path class="cls-7" d="M1593.75,497.19a83.6,83.6,0,0,0-6.2-67.14,11.73,11.73,0,0,1,1.76-14.08l.4-.39-19.88-19.88-.39.4a11.72,11.72,0,0,1-14.07,1.76,83.63,83.63,0,0,0-67.15-6.2c20.62,1.54,42.07,10,60.72,24.94l-3.58,3.58a4.16,4.16,0,0,0,0,5.89l14,14a4.16,4.16,0,0,0,5.89,0l3.59-3.58C1583.72,455.12,1592.21,476.57,1593.75,497.19Z"/><path class="cls-8" d="M1430.73,431.67h29.35a0,0,0,0,1,0,0V644.9a3.44,3.44,0,0,1-3.44,3.44h-22.48a3.44,3.44,0,0,1-3.44-3.44V431.67A0,0,0,0,1,1430.73,431.67Z" transform="translate(805.19 -863.89) rotate(45)"/><path class="cls-6" d="M1377.42,587.24l-8.62,8.61a14.68,14.68,0,1,0,20.76,20.76l8.61-8.62Z"/><line class="cls-3" x1="795.29" y1="207.69" x2="1024.24" y2="207.69"/><line class="cls-3" x1="1024.24" y1="388.09" x2="1024.24" y2="207.69"/><path class="cls-6" d="M657.63,261.08h-1.92V242.7a5,5,0,0,0-5.51-5.1l-56.38,4.16v47.67h56.29a5.5,5.5,0,0,0,5.5-5.5v-3.5a5.29,5.29,0,0,0,.1-1.06v-9.26h1.92Z"/><circle class="cls-8" cx="698.35" cy="44.19" r="44.19"/><circle class="cls-13" cx="698.35" cy="44.19" r="35.45" transform="translate(173.3 506.75) rotate(-45)"/><path class="cls-14" d="M698.35,8.74c-.43,0-.85,0-1.28.06a35.41,35.41,0,0,1,0,70.77c.43,0,.85.06,1.28.06a35.45,35.45,0,0,0,0-70.89Z"/><path class="cls-14" d="M714.34,36.42a11.14,11.14,0,0,0-11.13-11.13h-2.16V20.84h-4.94v4.45h-4.57V20.84H686.6v4.45h-6.34V32h4.48V56.33h-4.48v6.75h6.34v4.45h4.94V63.08h4.57v4.45h4.94V63.08h2.16a11.12,11.12,0,0,0,8-18.89A11.13,11.13,0,0,0,714.34,36.42ZM703.21,56.33H691.49V47.56h11.74a4.39,4.39,0,0,1,0,8.77Zm0-15.52H691.49V32h11.72a4.39,4.39,0,0,1,0,8.77Z"/><path class="cls-8" d="M716.89,36.42a11.15,11.15,0,0,0-11.14-11.13h-2.16V20.84h-4.93v4.45h-4.58V20.84h-4.94v4.45H682.8V32h4.48V56.33H682.8v6.75h6.34v4.45h4.94V63.08h4.58v4.45h4.93V63.08h2.16a11.12,11.12,0,0,0,8-18.89A11.1,11.1,0,0,0,716.89,36.42ZM705.75,56.33H694V47.56h11.74a4.39,4.39,0,0,1,0,8.77Zm0-15.52H694V32h11.72a4.39,4.39,0,0,1,0,8.77Z"/><path class="cls-15" d="M777.68,273.39,597.12,286.7V134.06l180.56-13.32a16.16,16.16,0,0,1,17.64,16.31V254.48A19.3,19.3,0,0,1,777.68,273.39Z"/><line class="cls-16" x1="669.42" y1="103.13" x2="669.42" y2="146.51"/><line class="cls-16" x1="669.42" y1="71.2" x2="669.42" y2="97.51"/><line class="cls-16" x1="727.27" y1="109.96" x2="727.27" y2="146.51"/><line class="cls-16" x1="727.27" y1="71" x2="727.27" y2="104.74"/><line class="cls-16" x1="688.7" y1="104.74" x2="688.7" y2="146.51"/><line class="cls-16" x1="688.7" y1="83.85" x2="688.7" y2="98.51"/><line class="cls-16" x1="707.99" y1="113.37" x2="707.99" y2="146.51"/><line class="cls-16" x1="707.99" y1="83.85" x2="707.99" y2="109.96"/><path class="cls-15" d="M597.12,134.06H789.51a5.48,5.48,0,0,1,5.48,5.48V281.22a5.48,5.48,0,0,1-5.48,5.48H597.12a0,0,0,0,1,0,0V134.06A0,0,0,0,1,597.12,134.06Z"/><path class="cls-8" d="M755.54,195.92h45.9a0,0,0,0,1,0,0v28.92a0,0,0,0,1,0,0h-45.9a3,3,0,0,1-3-3v-23A3,3,0,0,1,755.54,195.92Z"/><path class="cls-17" d="M770.75,210.38a5.93,5.93,0,1,1-5.93-5.92A5.93,5.93,0,0,1,770.75,210.38Z"/><rect class="cls-6" x="597.12" y="134.06" width="23.03" height="152.64"/><path class="cls-6" d="M820.45,242.42l-2-.74,8.19-21.56a27,27,0,1,0-50.51-19.19L768,222.49l-2-.74a7.1,7.1,0,0,0-9.16,4.11L735.09,283.2a7.11,7.11,0,0,0,4.11,9.16L793.62,313a7.1,7.1,0,0,0,9.15-4.11l21.79-57.35A7.1,7.1,0,0,0,820.45,242.42Zm-37.27-38.83a19.52,19.52,0,0,1,36.49,13.87L811.48,239,775,225.15Z"/><path class="cls-7" d="M820.65,248.38,770.14,229.2l11.57-30.46a27,27,0,1,1,50.5,19.19Zm-40.84-23.53,36.49,13.86,8.91-23.44a19.52,19.52,0,0,0-36.5-13.86Z"/><polygon class="cls-6" points="818.33 233.37 816.3 238.71 779.81 224.85 781.84 219.5 774.83 216.84 770.14 229.2 820.65 248.38 825.34 236.03 818.33 233.37"/><rect class="cls-15" x="749.16" y="227.43" width="72.4" height="75.53" rx="3.54" ry="3.54" transform="translate(145.38 -261.63) rotate(20.8)"/><path class="cls-6" d="M753.74,216.46h8a0,0,0,0,1,0,0V292a0,0,0,0,1,0,0h-8a2.57,2.57,0,0,1-2.57-2.57V219a2.57,2.57,0,0,1,2.57-2.57Z" transform="translate(139.6 -252.08) rotate(20.8)"/><polygon class="cls-18" points="806.63 288.78 758.62 312.16 757.19 323.46 767.14 328.45 771.66 326.25 774.05 319.3 781.82 321.98 784.7 313.63 792.75 316.41 795.55 308.3 803.43 311.02 814.77 305.5 806.63 288.78"/><path class="cls-19" d="M799.62,292.19a29.52,29.52,0,0,0,8,16.77l7.12-3.46-8.14-16.72Z"/><path class="cls-18" d="M860,273.33a29.47,29.47,0,1,0-13.59,39.4A29.47,29.47,0,0,0,860,273.33Zm-22.75,11.08a8.67,8.67,0,1,1,11.59,4A8.66,8.66,0,0,1,837.28,284.41Z"/><path class="cls-19" d="M856.14,275.23a12.31,12.31,0,1,0-5.68,16.45A12.31,12.31,0,0,0,856.14,275.23Zm-18.86,9.18a8.67,8.67,0,1,1,11.59,4A8.66,8.66,0,0,1,837.28,284.41Z"/><path class="cls-19" d="M828.92,298.12l-7.59-15.58a4.68,4.68,0,1,0-8.42,4.1l7.59,15.58a4.68,4.68,0,0,0,8.42-4.1Z"/><polygon class="cls-19" points="758.29 314.78 757.92 317.66 803.44 295.49 802.37 293.31 758.29 314.78"/><polygon class="cls-19" points="757.67 319.66 757.42 321.61 804.9 298.49 804.18 297.01 757.67 319.66"/><line class="cls-3" x1="1451.32" y1="506.81" x2="1204.9" y2="506.81"/></g></g></g></svg>