<?xml version="1.0" encoding="utf-8"?>
<!-- Generator: Adobe Illustrator 22.1.0, SVG Export Plug-In . SVG Version: 6.00 Build 0)  -->
<svg version="1.1" id="Layer_1" xmlns="http://www.w3.org/2000/svg" xmlns:xlink="http://www.w3.org/1999/xlink" x="0px" y="0px"
	 viewBox="0 0 76 76" style="enable-background:new 0 0 76 76;" xml:space="preserve">
<style type="text/css">
	.st0{fill:#746A63;}
	.st1{fill:#4C4B4B;}
	.st2{fill:#FFFFFF;}
	.st3{font-family:'Pristina-Regular';}
	.st4{font-size:46px;}
	.st5{fill:none;stroke:#756B64;stroke-width:3;stroke-miterlimit:22.9256;}
	.st6{fill:none;stroke:#756B64;stroke-width:3;stroke-miterlimit:10;}
</style>
<g>
	<path class="st0" d="M90.9-44.3c0.5,1.9,0.3,3.1-2.2,3.1c-16.6-0.1-33.2-0.1-49.8,0c-3.6,0-2-2.5-2.4-4.1c0.7,0,1.3,0,2,0
		c2.7,1,5.5,0.5,8.3,0.5c13.1,0.1,26.2,0,39.4,0.1C87.7-44.8,89.4-45.2,90.9-44.3z"/>
	<path class="st1" d="M2,76.1c24.4,0,48.8-0.1,73.3-0.1c0.3-0.5,0.6-0.5,0.9,0c-0.9,2.1-2.6,0.9-3.9,0.9C48.8,77,25.4,77,2,77
		c-0.3-0.2-0.4-0.4-0.3-0.6C1.8,76.2,1.9,76.1,2,76.1z"/>
	<path class="st2" d="M38.6,72.9c-10,0-20.1-0.1-30.1,0.1c-2.9,0-3.5-0.8-3.5-3.6c0.1-15.1,0.1-30.3,0-45.4c0-2.5,0.4-3.4,3.2-3.4
		c20.2,0.1,40.5,0.1,60.7,0c2.6,0,3.3,0.7,3.3,3.3c-0.1,15.3-0.1,30.6,0,45.9c0,2.9-1.1,3.2-3.5,3.2C58.6,72.9,48.6,72.9,38.6,72.9z
		"/>
	<path class="st0" d="M192,4.2c-9.9,0-19.8,0-29.7,0c-1.6,0-3.9,0.8-3.7-2.3c0.2-2.9,2.4-1.7,3.8-1.7c20.1-0.1,40.2-0.1,60.3,0
		c1.4,0,3.5-1,3.5,2c0,2.9-2.1,2-3.5,2C212.5,4.2,202.2,4.2,192,4.2z"/>
	<text transform="matrix(0.9885 0 0 1 15.8574 61)" class="st3 st4">M</text>
	<rect x="1.1" y="17.7" class="st5" width="74.6" height="58.1"/>
	<line class="st6" x1="5.9" y1="11.7" x2="69" y2="11.7"/>
	<line class="st6" x1="26.4" y1="5.3" x2="48.5" y2="5.3"/>
</g>
</svg>
